<svg width="275" height="39" viewBox="0 0 275 39" fill="none" xmlns="http://www.w3.org/2000/svg">
<path d="M56.9841 18.0329H64.9812C65.6281 18.0329 66.099 18.1067 66.3922 18.2524C66.6855 18.3981 66.8821 18.6278 66.9805 18.9398C67.0788 19.2518 67.1271 19.665 67.1271 20.181C67.1271 20.697 67.0788 21.1119 66.9805 21.4222C66.8821 21.7342 66.7165 21.9485 66.4802 22.0651C66.1076 22.2605 65.5987 22.3565 64.9519 22.3565H54.369C52.9976 22.3565 52.1938 21.9862 51.9592 21.2456C51.8419 20.9336 51.7832 20.4382 51.7832 19.7559V3.51244C51.7832 3.06499 51.7987 2.72898 51.8281 2.5044C51.8574 2.28154 51.9505 2.02267 52.1075 1.72952C52.3818 1.20321 53.146 0.940918 54.4 0.940918C55.7714 0.940918 56.5856 1.30093 56.8409 2.02267C56.9392 2.35354 56.9875 2.86099 56.9875 3.54158V18.0329H56.9841Z" fill="#4967A7"/>
<path d="M69.9131 3.51244C69.9131 3.06499 69.9286 2.72898 69.9579 2.5044C69.9873 2.28154 70.0804 2.02267 70.2374 1.72952C70.5117 1.20321 71.2758 0.940918 72.5299 0.940918C73.9013 0.940918 74.7155 1.30093 74.9708 2.02267C75.0691 2.35354 75.1174 2.86099 75.1174 3.54158V19.7867C75.1174 20.2547 75.1019 20.5959 75.0726 20.8085C75.0432 21.0228 74.9501 21.2765 74.7931 21.5679C74.5188 22.0942 73.7547 22.3565 72.5006 22.3565C71.1292 22.3565 70.3254 21.9862 70.0908 21.2456C69.9735 20.9336 69.9148 20.4382 69.9148 19.7559V3.51244H69.9131Z" fill="#4967A7"/>
<path d="M91.8651 1.83253C92.0514 1.49138 92.3309 1.26337 92.7035 1.14679C93.0761 1.03022 93.5418 0.971926 94.1007 0.971926C94.6596 0.971926 95.1098 1.01993 95.4531 1.11765C95.7964 1.21536 96.05 1.33194 96.2173 1.46909C96.3829 1.60624 96.5054 1.81024 96.5847 2.08282C96.702 2.39483 96.7607 2.89199 96.7607 3.57259V19.7869C96.7607 20.2549 96.7451 20.596 96.7158 20.8086C96.6865 21.0229 96.5933 21.2766 96.4364 21.5681C96.1621 22.0944 95.3979 22.3567 94.1438 22.3567C93.3796 22.3567 92.8501 22.2984 92.5568 22.1818C92.2636 22.0652 92.0169 21.8801 91.822 21.6263C87.4129 15.7839 84.5114 11.966 83.1193 10.1728V19.7851C83.1193 20.2532 83.1038 20.5943 83.0745 20.8069C83.0452 21.0212 82.952 21.2749 82.795 21.5663C82.5208 22.0926 81.7566 22.3549 80.5025 22.3549C79.2864 22.3549 78.5429 22.0926 78.2686 21.5663C78.1117 21.2749 78.0185 21.0109 77.9892 20.7777C77.9599 20.5446 77.9443 20.2034 77.9443 19.756V3.45258C77.9443 2.71198 78.0375 2.17197 78.2238 1.83081C78.4101 1.48966 78.6895 1.26165 79.0621 1.14508C79.4347 1.0285 79.9143 0.970215 80.5025 0.970215C81.0907 0.970215 81.5565 1.02336 81.8998 1.13136C82.243 1.23937 82.4828 1.36108 82.6208 1.49651C82.6984 1.5548 82.9244 1.80853 83.297 2.25597C87.4319 7.84645 90.1953 11.5374 91.5874 13.3289V3.4543C91.5857 2.7137 91.6788 2.17368 91.8651 1.83253Z" fill="#4967A7"/>
<path d="M110.61 9.15106H115.783C116.842 9.19049 117.487 9.46307 117.724 9.96881C117.92 10.3391 118.017 10.8843 118.017 11.6043V18.0314C118.017 18.6554 117.742 19.2486 117.194 19.8143C115.548 21.5081 113.078 22.3567 109.785 22.3567C106.865 22.3567 104.327 21.2612 102.171 19.0703C100.015 16.8793 98.9365 14.2341 98.9365 11.138C98.9365 8.04017 100.034 5.45494 102.23 3.38058C104.424 1.30622 107.011 0.269043 109.99 0.269043C112.302 0.269043 114.487 1.02849 116.545 2.5474C117.075 2.93656 117.339 3.37029 117.339 3.84688C117.339 4.32518 117.113 4.87377 116.663 5.4978C115.898 6.52983 115.202 7.04585 114.575 7.04585C114.203 7.04585 113.606 6.77841 112.781 6.24182C111.959 5.70694 110.979 5.43779 109.842 5.43779C108.352 5.43779 107.03 5.95895 105.873 7.00127C104.715 8.0436 104.139 9.4065 104.139 11.0917C104.139 12.7769 104.727 14.2084 105.904 15.3861C107.08 16.5656 108.412 17.1536 109.902 17.1536C110.98 17.1536 111.95 16.9788 112.812 16.6273V13.4421H110.491C109.883 13.4421 109.452 13.3649 109.197 13.2089C108.942 13.0529 108.776 12.8249 108.697 12.5215C108.617 12.2197 108.579 11.81 108.579 11.294C108.579 10.778 108.624 10.3648 108.712 10.0528C108.8 9.7408 108.962 9.5265 109.197 9.40993C109.552 9.23849 110.023 9.15106 110.61 9.15106Z" fill="#4967A7"/>
<path d="M139.165 1.29257C140.321 1.8583 140.9 2.48061 140.9 3.16292C140.9 3.47493 140.754 3.94295 140.459 4.56525L132.344 20.9269C132.129 21.3555 131.801 21.7018 131.359 21.9641C130.918 22.2264 130.462 22.3584 129.993 22.3584H129.698C129.208 22.3584 128.743 22.2264 128.303 21.9641C127.861 21.7018 127.533 21.3555 127.318 20.9269L119.203 4.56525C118.91 3.94295 118.762 3.47493 118.762 3.16292C118.762 2.48061 119.34 1.8583 120.497 1.29257C121.144 0.9617 121.639 0.79541 121.982 0.79541C122.326 0.79541 122.584 0.834844 122.762 0.911989C122.938 0.990849 123.105 1.12628 123.262 1.32171C123.438 1.55487 123.6 1.81373 123.747 2.0966C123.894 2.37946 124.271 3.18692 124.879 4.5224C125.486 5.85616 126.138 7.27392 126.833 8.77397C127.528 10.274 128.185 11.6918 128.803 13.0255C129.421 14.3593 129.767 15.105 129.847 15.261L135.725 2.46347C135.882 2.09317 136.019 1.80173 136.138 1.58744C136.491 1.06113 136.921 0.798842 137.431 0.798842C137.94 0.795414 138.52 0.9617 139.165 1.29257Z" fill="#4967A7"/>
<path d="M151.88 0.327148C154.779 0.327148 157.298 1.36947 159.435 3.45411C161.571 5.53875 162.64 8.12398 162.64 11.2115C162.64 14.299 161.621 16.9289 159.584 19.0992C157.545 21.2713 155.036 22.3565 152.057 22.3565C149.078 22.3565 146.546 21.285 144.457 19.1421C142.37 16.9991 141.326 14.4482 141.326 11.4875C141.326 9.8709 141.619 8.35713 142.208 6.94451C142.796 5.53189 143.579 4.349 144.559 3.39411C145.539 2.43922 146.665 1.69005 147.94 1.14489C149.213 0.599727 150.527 0.327148 151.88 0.327148ZM146.529 11.3418C146.529 13.075 147.091 14.4825 148.219 15.5642C149.346 16.646 150.605 17.186 151.997 17.186C153.389 17.186 154.643 16.6597 155.759 15.6088C156.877 14.5562 157.434 13.1453 157.434 11.3727C157.434 9.60003 156.87 8.17884 155.744 7.10738C154.617 6.03591 153.358 5.50104 151.966 5.50104C150.574 5.50104 149.32 6.04105 148.204 7.1228C147.088 8.20113 146.529 9.60861 146.529 11.3418Z" fill="#4967A7"/>
<path d="M183.848 1.48097C184.034 1.13981 184.314 0.911805 184.686 0.79523C185.059 0.678654 185.524 0.620368 186.083 0.620368C186.642 0.620368 187.092 0.668371 187.436 0.766089C187.779 0.863806 188.033 0.98038 188.2 1.11753C188.366 1.25467 188.49 1.45868 188.567 1.73127C188.685 2.04328 188.743 2.54043 188.743 3.22103V19.4353C188.743 19.9033 188.728 20.2445 188.7 20.457C188.671 20.6713 188.578 20.9251 188.421 21.2165C188.146 21.7428 187.382 22.0051 186.128 22.0051C185.364 22.0051 184.834 21.9468 184.541 21.8302C184.248 21.7137 184.001 21.5285 183.806 21.2748C179.397 15.4323 176.496 11.6145 175.104 9.82125V19.4336C175.104 19.9016 175.088 20.2428 175.059 20.4553C175.03 20.6696 174.936 20.9233 174.779 21.2148C174.505 21.7411 173.741 22.0034 172.487 22.0034C171.271 22.0034 170.527 21.7411 170.253 21.2148C170.096 20.9233 170.003 20.6593 169.974 20.4262C169.944 20.193 169.929 19.8519 169.929 19.4044V3.10102C169.929 2.36043 170.022 1.82041 170.208 1.47926C170.394 1.1381 170.674 0.910094 171.047 0.793519C171.419 0.676943 171.899 0.618652 172.487 0.618652C173.075 0.618652 173.541 0.671797 173.884 0.779801C174.227 0.887805 174.467 1.00952 174.605 1.14496C174.683 1.20324 174.909 1.45697 175.281 1.90441C179.416 7.49489 182.18 11.1859 183.572 12.9774V3.10274C183.568 2.36386 183.661 1.82212 183.848 1.48097Z" fill="#EF6F81"/>
<path d="M203.528 2.10998L211.465 18.4134C211.798 19.0751 211.965 19.5723 211.965 19.9032C211.965 20.6043 211.396 21.2369 210.261 21.8026C209.595 22.1335 209.07 22.2998 208.688 22.2998C208.305 22.2998 207.992 22.2124 207.747 22.0375C207.502 21.8626 207.326 21.6775 207.218 21.4821C207.109 21.2883 206.957 20.9952 206.762 20.606L205.234 17.4499H197.09L195.562 20.606C195.365 20.9952 195.214 21.2781 195.107 21.4529C194.998 21.6278 194.822 21.8078 194.577 21.9929C194.332 22.1781 194.018 22.2707 193.637 22.2707C193.256 22.2707 192.73 22.1044 192.064 21.7735C190.927 21.2283 190.359 20.6043 190.359 19.9032C190.359 19.5723 190.525 19.0751 190.86 18.4134L198.796 2.08083C199.012 1.63339 199.34 1.27338 199.781 0.999081C200.223 0.7265 200.687 0.589355 201.179 0.589355C202.236 0.59107 203.019 1.0968 203.528 2.10998ZM201.148 9.12164L199.207 13.1246H203.117L201.148 9.12164Z" fill="#EF6F81"/>
<path d="M227.502 1.48097C227.688 1.13981 227.968 0.911805 228.34 0.79523C228.713 0.678654 229.178 0.620368 229.737 0.620368C230.296 0.620368 230.747 0.668371 231.09 0.766089C231.433 0.863806 231.687 0.98038 231.854 1.11753C232.02 1.25467 232.142 1.45868 232.221 1.73127C232.339 2.04328 232.397 2.54043 232.397 3.22103V19.4353C232.397 19.9033 232.382 20.2445 232.352 20.457C232.323 20.6713 232.23 20.9251 232.073 21.2165C231.799 21.7428 231.035 22.0051 229.781 22.0051C229.016 22.0051 228.487 21.9468 228.194 21.8302C227.9 21.7137 227.654 21.5285 227.459 21.2748C223.05 15.4323 220.148 11.6145 218.756 9.82125V19.4336C218.756 19.9016 218.741 20.2428 218.711 20.4553C218.682 20.6696 218.589 20.9233 218.432 21.2148C218.157 21.7411 217.393 22.0034 216.139 22.0034C214.923 22.0034 214.18 21.7411 213.905 21.2148C213.748 20.9233 213.655 20.6593 213.626 20.4262C213.597 20.193 213.581 19.8519 213.581 19.4044V3.10102C213.581 2.36043 213.674 1.82041 213.861 1.47926C214.047 1.1381 214.326 0.910094 214.699 0.793519C215.071 0.676943 215.551 0.618652 216.139 0.618652C216.727 0.618652 217.193 0.671797 217.536 0.779801C217.88 0.887805 218.12 1.00952 218.258 1.14496C218.335 1.20324 218.561 1.45697 218.934 1.90441C223.069 7.49489 225.832 11.1859 227.224 12.9774V3.10274C227.222 2.36386 227.315 1.82212 227.502 1.48097Z" fill="#EF6F81"/>
<path d="M248.67 1.48097C248.856 1.13981 249.136 0.911805 249.508 0.79523C249.881 0.678654 250.347 0.620368 250.906 0.620368C251.465 0.620368 251.915 0.668371 252.258 0.766089C252.601 0.863806 252.855 0.98038 253.022 1.11753C253.188 1.25467 253.31 1.45868 253.39 1.73127C253.507 2.04328 253.566 2.54043 253.566 3.22103V19.4353C253.566 19.9033 253.55 20.2445 253.522 20.457C253.493 20.6713 253.4 20.9251 253.243 21.2165C252.969 21.7428 252.205 22.0051 250.95 22.0051C250.186 22.0051 249.657 21.9468 249.363 21.8302C249.07 21.7137 248.824 21.5285 248.629 21.2748C244.22 15.4323 241.318 11.6145 239.926 9.82125V19.4336C239.926 19.9016 239.91 20.2428 239.881 20.4553C239.852 20.6696 239.759 20.9233 239.602 21.2148C239.327 21.7411 238.563 22.0034 237.309 22.0034C236.093 22.0034 235.35 21.7411 235.075 21.2148C234.918 20.9233 234.825 20.6593 234.796 20.4262C234.767 20.193 234.751 19.8519 234.751 19.4044V3.10102C234.751 2.36043 234.844 1.82041 235.03 1.47926C235.217 1.1381 235.496 0.910094 235.869 0.793519C236.241 0.676943 236.721 0.618652 237.309 0.618652C237.897 0.618652 238.363 0.671797 238.706 0.779801C239.05 0.887805 239.289 1.00952 239.427 1.14496C239.505 1.20324 239.731 1.45697 240.104 1.90441C244.239 7.49489 247.002 11.1859 248.394 12.9774V3.10274C248.391 2.36386 248.482 1.82212 248.67 1.48097Z" fill="#EF6F81"/>
<path d="M273.025 0.999113C273.986 1.66085 274.465 2.30373 274.465 2.92775C274.465 3.29805 274.239 3.81407 273.789 4.4758L267.439 13.9133V19.4935C267.439 19.9409 267.424 20.2769 267.394 20.5015C267.365 20.7261 267.272 20.9832 267.115 21.2764C266.958 21.5678 266.694 21.7735 266.322 21.8901C265.949 22.0067 265.449 22.065 264.822 22.065C264.195 22.065 263.696 22.0067 263.323 21.8901C262.951 21.7735 262.687 21.5644 262.53 21.2627C262.373 20.9609 262.28 20.6986 262.25 20.4741C262.221 20.2495 262.206 19.9049 262.206 19.4369V13.915L255.856 4.47752C255.404 3.81578 255.18 3.29976 255.18 2.92947C255.18 2.30716 255.611 1.70714 256.473 1.13283C257.336 0.558526 257.953 0.270517 258.326 0.270517C258.699 0.270517 258.992 0.349379 259.208 0.50367C259.541 0.717963 259.894 1.1174 260.267 1.702L264.822 8.94681L269.38 1.702C269.753 1.1174 270.075 0.733389 270.349 0.54824C270.624 0.363091 270.943 0.270517 271.305 0.270517C271.667 0.268802 272.24 0.512239 273.025 0.999113Z" fill="#EF6F81"/>
<path d="M52.5651 37.2853C52.1355 37.2853 51.9199 37.0658 51.9199 36.6235V30.8256C51.9199 30.3713 52.1476 30.145 52.6047 30.145H57.4123C57.8694 30.145 58.0972 30.3713 58.0972 30.8256V36.6235C58.0972 37.0641 57.8815 37.2853 57.452 37.2853C57.0225 37.2853 56.8069 37.0658 56.8069 36.6235V31.2148H53.2085V36.6235C53.2085 37.0641 52.9946 37.2853 52.5651 37.2853Z" fill="#4967A7"/>
<path d="M64.3344 37.3039C63.6496 37.3039 63.0493 37.1531 62.5353 36.8531C62.0212 36.5531 61.6227 36.1296 61.3416 35.5862C61.0587 35.0427 60.9189 34.4033 60.9189 33.6678C60.9189 32.9272 61.0604 32.2861 61.3416 31.7443C61.6245 31.2026 62.0195 30.7843 62.5301 30.4877C63.0407 30.1911 63.6427 30.042 64.3344 30.042C65.0262 30.042 65.6282 30.1911 66.1388 30.4877C66.6494 30.7843 67.0461 31.2043 67.3273 31.7443C67.6102 32.2843 67.7499 32.9221 67.7499 33.6575C67.7499 34.3981 67.6085 35.041 67.3273 35.5845C67.0444 36.1279 66.6494 36.5513 66.1388 36.8514C65.6265 37.1548 65.0262 37.3039 64.3344 37.3039ZM64.3344 36.2033C64.9865 36.2033 65.4936 35.9788 65.8559 35.5313C66.2181 35.0839 66.3993 34.4633 66.3993 33.6678C66.3993 32.8672 66.2199 32.2449 65.8593 31.8043C65.5005 31.3638 64.9917 31.1426 64.3327 31.1426C63.6807 31.1426 63.1735 31.362 62.8113 31.8043C62.449 32.2449 62.2679 32.8655 62.2679 33.6678C62.2679 34.4633 62.449 35.0839 62.8113 35.5313C63.1752 35.9788 63.6824 36.2033 64.3344 36.2033Z" fill="#4967A7"/>
<path d="M70.3098 38.9377C69.9268 38.9377 69.7354 38.7439 69.7354 38.3565V36.7742C69.7354 36.3799 69.9372 36.1827 70.3408 36.1827H70.4409C71.0722 35.3941 71.3879 33.9969 71.3879 31.986V30.8237C71.3879 30.3694 71.6156 30.1431 72.0727 30.1431H75.7314C76.1886 30.1431 76.4163 30.3694 76.4163 30.8237V36.1827H76.8199C77.2236 36.1827 77.4254 36.3799 77.4254 36.7742V38.3565C77.4254 38.7439 77.2374 38.9377 76.8613 38.9377C76.4715 38.9377 76.2765 38.7439 76.2765 38.3565V37.2045H70.8859V38.3565C70.8842 38.7439 70.6927 38.9377 70.3098 38.9377ZM71.7502 36.1827H75.1156V31.1648H72.5868V32.106C72.5868 33.0677 72.5178 33.8786 72.3798 34.5404C72.2435 35.2021 72.0331 35.749 71.7502 36.1827Z" fill="#4967A7"/>
<path d="M80.6184 37.2047C80.1613 37.2047 79.9336 36.9784 79.9336 36.5241V30.8256C79.9336 30.3713 80.1613 30.145 80.6184 30.145H84.4272C84.7757 30.145 84.9516 30.3113 84.9516 30.6456C84.9516 30.9936 84.7774 31.1668 84.4272 31.1668H81.1721V33.0903H83.1473C83.9063 33.0903 84.4997 33.2634 84.9257 33.6114C85.3518 33.9595 85.5657 34.4686 85.5657 35.1441C85.5657 35.8127 85.3518 36.3235 84.9257 36.6767C84.4997 37.0299 83.9063 37.2081 83.1473 37.2081H80.6184V37.2047ZM81.1739 36.183H82.9886C83.8752 36.183 84.3185 35.835 84.3185 35.1406C84.3185 34.4532 83.8752 34.1086 82.9886 34.1086H81.1739V36.183Z" fill="#4967A7"/>
<path d="M91.4116 37.3039C90.7268 37.3039 90.1265 37.1531 89.6124 36.8531C89.0984 36.5531 88.6999 36.1296 88.4187 35.5862C88.1358 35.0427 87.9961 34.4033 87.9961 33.6678C87.9961 32.9272 88.1375 32.2861 88.4187 31.7443C88.7016 31.2026 89.0966 30.7843 89.6072 30.4877C90.1178 30.1911 90.7199 30.042 91.4116 30.042C92.1033 30.042 92.7054 30.1911 93.216 30.4877C93.7266 30.7843 94.1233 31.2043 94.4045 31.7443C94.6874 32.2843 94.8271 32.9221 94.8271 33.6575C94.8271 34.3981 94.6857 35.041 94.4045 35.5845C94.1216 36.1279 93.7266 36.5513 93.216 36.8514C92.7036 37.1548 92.1033 37.3039 91.4116 37.3039ZM91.4116 36.2033C92.0636 36.2033 92.5708 35.9788 92.9331 35.5313C93.2953 35.0839 93.4764 34.4633 93.4764 33.6678C93.4764 32.8672 93.297 32.2449 92.9365 31.8043C92.5777 31.3638 92.0688 31.1426 91.4099 31.1426C90.7578 31.1426 90.2507 31.362 89.8884 31.8043C89.5262 32.2449 89.345 32.8655 89.345 33.6678C89.345 34.4633 89.5262 35.0839 89.8884 35.5313C90.2524 35.9788 90.7595 36.2033 91.4116 36.2033Z" fill="#4967A7"/>
<path d="M98.2946 37.285C97.865 37.285 97.6494 37.0656 97.6494 36.6233V30.7945C97.6494 30.3608 97.8668 30.1431 98.3049 30.1431H100.734C101.513 30.1431 102.114 30.3368 102.538 30.7242C102.961 31.1117 103.173 31.6517 103.173 32.346C103.173 33.0403 102.961 33.5837 102.538 33.9729C102.115 34.3638 101.513 34.5592 100.734 34.5592H98.9397V36.6216C98.9397 37.0639 98.7241 37.285 98.2946 37.285ZM98.9397 33.5495H100.532C101.458 33.5495 101.922 33.1483 101.922 32.3477C101.922 31.554 101.458 31.1562 100.532 31.1562H98.9397V33.5495Z" fill="#4967A7"/>
<path d="M109.912 38.9377C109.529 38.9377 109.338 38.7439 109.338 38.3565V36.7742C109.338 36.3799 109.54 36.1827 109.943 36.1827H110.043C110.675 35.3941 110.99 33.9969 110.99 31.986V30.8237C110.99 30.3694 111.218 30.1431 111.675 30.1431H115.334C115.791 30.1431 116.019 30.3694 116.019 30.8237V36.1827H116.422C116.826 36.1827 117.028 36.3799 117.028 36.7742V38.3565C117.028 38.7439 116.84 38.9377 116.464 38.9377C116.074 38.9377 115.879 38.7439 115.879 38.3565V37.2045H110.487V38.3565C110.487 38.7439 110.295 38.9377 109.912 38.9377ZM111.354 36.1827H114.72V31.1648H112.191V32.106C112.191 33.0677 112.122 33.8786 111.984 34.5404C111.846 35.2021 111.636 35.749 111.354 36.1827Z" fill="#4967A7"/>
<path d="M122.721 37.3039C122.036 37.3039 121.436 37.1531 120.922 36.8531C120.408 36.5531 120.009 36.1296 119.728 35.5862C119.445 35.0427 119.306 34.4033 119.306 33.6678C119.306 32.9272 119.447 32.2861 119.728 31.7443C120.011 31.2026 120.406 30.7843 120.917 30.4877C121.427 30.1911 122.029 30.042 122.721 30.042C123.413 30.042 124.015 30.1911 124.526 30.4877C125.036 30.7843 125.433 31.2043 125.714 31.7443C125.997 32.2843 126.137 32.9221 126.137 33.6575C126.137 34.3981 125.995 35.041 125.714 35.5845C125.431 36.1279 125.036 36.5513 124.526 36.8514C124.015 37.1548 123.413 37.3039 122.721 37.3039ZM122.721 36.2033C123.373 36.2033 123.88 35.9788 124.243 35.5313C124.605 35.0839 124.786 34.4633 124.786 33.6678C124.786 32.8672 124.607 32.2449 124.246 31.8043C123.887 31.3638 123.378 31.1426 122.719 31.1426C122.067 31.1426 121.56 31.362 121.198 31.8043C120.836 32.2449 120.655 32.8655 120.655 33.6678C120.655 34.4633 120.836 35.0839 121.198 35.5313C121.564 35.9788 122.071 36.2033 122.721 36.2033Z" fill="#4967A7"/>
<path d="M129.564 37.285C129.174 37.285 128.979 37.0845 128.979 36.6833V30.6642C128.979 30.2631 129.181 30.0625 129.585 30.0625C129.752 30.0625 129.885 30.0951 129.983 30.1585C130.08 30.2219 130.17 30.3299 130.251 30.4842L132.578 34.7598L134.905 30.4842C134.986 30.3299 135.072 30.2219 135.167 30.1585C135.262 30.0951 135.391 30.0625 135.56 30.0625C135.95 30.0625 136.145 30.2631 136.145 30.6642V36.6833C136.145 37.0845 135.95 37.285 135.56 37.285C135.171 37.285 134.976 37.0845 134.976 36.6833V32.4472L133.082 35.8827C133.014 35.9959 132.944 36.0799 132.869 36.133C132.795 36.1862 132.695 36.2136 132.567 36.2136C132.44 36.2136 132.336 36.1862 132.255 36.1279C132.174 36.0713 132.103 35.989 132.043 35.8827L130.149 32.4677V36.6833C130.149 37.0845 129.954 37.285 129.564 37.285Z" fill="#4967A7"/>
<path d="M139.288 37.2853C139.054 37.2853 138.885 37.2047 138.784 37.0453C138.684 36.8858 138.688 36.6921 138.795 36.4641L141.455 30.6045C141.543 30.4108 141.648 30.2719 141.772 30.1896C141.896 30.1056 142.04 30.0645 142.2 30.0645C142.355 30.0645 142.493 30.1056 142.617 30.1896C142.742 30.2736 142.847 30.4108 142.935 30.6045L145.605 36.4641C145.712 36.6973 145.719 36.8927 145.626 37.0504C145.531 37.2081 145.371 37.2853 145.143 37.2853C144.955 37.2853 144.808 37.2407 144.705 37.1498C144.601 37.0607 144.508 36.9218 144.427 36.735L143.923 35.5726H140.456L139.963 36.735C139.875 36.9287 139.785 37.0693 139.69 37.155C139.597 37.2407 139.464 37.2853 139.288 37.2853ZM142.181 31.5371L140.901 34.5509H143.482L142.202 31.5371H142.181Z" fill="#4967A7"/>
<path d="M148.911 37.2047C148.454 37.2047 148.227 36.9784 148.227 36.5241V30.7262C148.227 30.2856 148.439 30.0645 148.861 30.0645C149.284 30.0645 149.496 30.2856 149.496 30.7262V36.1349H152.206V30.7262C152.206 30.2856 152.418 30.0645 152.841 30.0645C153.264 30.0645 153.476 30.2856 153.476 30.7262V36.1349H156.186V30.7262C156.186 30.2856 156.398 30.0645 156.821 30.0645C157.243 30.0645 157.455 30.2856 157.455 30.7262V36.5241C157.455 36.9784 157.228 37.2047 156.77 37.2047H148.911Z" fill="#4967A7"/>
<path d="M161.166 37.285C160.736 37.285 160.521 37.0656 160.521 36.6233V30.7242C160.521 30.2836 160.736 30.0625 161.166 30.0625C161.595 30.0625 161.811 30.2836 161.811 30.7242V33.0883H165.47V30.7242C165.47 30.2836 165.685 30.0625 166.115 30.0625C166.544 30.0625 166.76 30.2836 166.76 30.7242V36.6233C166.76 37.0639 166.544 37.285 166.115 37.285C165.685 37.285 165.47 37.0656 165.47 36.6233V34.1598H161.811V36.6233C161.811 37.0639 161.595 37.285 161.166 37.285Z" fill="#4967A7"/>
<path d="M170.507 37.2047C170.05 37.2047 169.822 36.9784 169.822 36.5241V30.8256C169.822 30.3713 170.05 30.145 170.507 30.145H174.105C174.456 30.145 174.63 30.3113 174.63 30.6456C174.63 30.9936 174.456 31.1668 174.105 31.1668H171.063V33.1091H173.885C174.233 33.1091 174.409 33.2788 174.409 33.62C174.409 33.9612 174.235 34.1309 173.885 34.1309H171.063V36.1847H174.105C174.456 36.1847 174.63 36.3544 174.63 36.6955C174.63 37.0367 174.456 37.2064 174.105 37.2064H170.507V37.2047Z" fill="#4967A7"/>
<path d="M177.995 37.2853C177.565 37.2853 177.35 37.0658 177.35 36.6235V30.805C177.35 30.3645 177.572 30.145 178.015 30.145H181.572C181.942 30.145 182.126 30.3216 182.126 30.6765C182.126 31.0365 181.942 31.2165 181.572 31.2165H178.64V36.6253C178.64 37.0641 178.424 37.2853 177.995 37.2853Z" fill="#4967A7"/>
<path d="M187.578 37.3039C186.893 37.3039 186.292 37.1531 185.778 36.8531C185.264 36.5531 184.866 36.1296 184.585 35.5862C184.302 35.0427 184.162 34.4033 184.162 33.6678C184.162 32.9272 184.304 32.2861 184.585 31.7443C184.868 31.2026 185.263 30.7843 185.773 30.4877C186.284 30.1911 186.884 30.042 187.578 30.042C188.271 30.042 188.871 30.1911 189.382 30.4877C189.893 30.7843 190.289 31.2043 190.57 31.7443C190.853 32.2843 190.993 32.9221 190.993 33.6575C190.993 34.3981 190.852 35.041 190.57 35.5845C190.288 36.1279 189.893 36.5513 189.382 36.8514C188.871 37.1514 188.269 37.3039 187.578 37.3039ZM187.578 36.2033C188.23 36.2033 188.737 35.9788 189.099 35.5313C189.461 35.0839 189.644 34.4633 189.644 33.6678C189.644 32.8672 189.465 32.2449 189.104 31.8043C188.745 31.3638 188.237 31.1426 187.578 31.1426C186.926 31.1426 186.418 31.362 186.056 31.8043C185.694 32.2449 185.511 32.8655 185.511 33.6678C185.511 34.4633 185.692 35.0839 186.056 35.5313C186.42 35.9788 186.926 36.2033 187.578 36.2033Z" fill="#4967A7"/>
<path d="M198.704 37.2853C198.274 37.2853 198.059 37.0658 198.059 36.6235V30.8256C198.059 30.3713 198.286 30.145 198.743 30.145H203.551C204.008 30.145 204.236 30.3713 204.236 30.8256V36.6235C204.236 37.0641 204.02 37.2853 203.591 37.2853C203.161 37.2853 202.945 37.0658 202.945 36.6235V31.2148H199.347V36.6235C199.347 37.0641 199.133 37.2853 198.704 37.2853Z" fill="#4967A7"/>
<path d="M207.974 37.2047C207.517 37.2047 207.289 36.9784 207.289 36.5241V30.8256C207.289 30.3713 207.517 30.145 207.974 30.145H211.572C211.922 30.145 212.097 30.3113 212.097 30.6456C212.097 30.9936 211.922 31.1668 211.572 31.1668H208.529V33.1091H211.351C211.7 33.1091 211.876 33.2788 211.876 33.62C211.876 33.9612 211.702 34.1309 211.351 34.1309H208.529V36.1847H211.572C211.922 36.1847 212.097 36.3544 212.097 36.6955C212.097 37.0367 211.922 37.2064 211.572 37.2064H207.974V37.2047Z" fill="#4967A7"/>
<path d="M215.461 37.285C215.031 37.285 214.815 37.0656 214.815 36.6233V30.7945C214.815 30.3608 215.035 30.1431 215.471 30.1431H217.9C218.679 30.1431 219.28 30.3368 219.704 30.7242C220.127 31.1117 220.339 31.6517 220.339 32.346C220.339 33.0403 220.127 33.5837 219.704 33.9729C219.281 34.3638 218.679 34.5592 217.9 34.5592H216.106V36.6216C216.106 37.0639 215.892 37.285 215.461 37.285ZM216.106 33.5495H217.698C218.624 33.5495 219.088 33.1483 219.088 32.3477C219.088 31.554 218.624 31.1562 217.698 31.1562H216.106V33.5495Z" fill="#4967A7"/>
<path d="M226.104 37.3039C225.365 37.3039 224.732 37.1548 224.204 36.8582C223.677 36.5616 223.273 36.1399 222.99 35.5965C222.707 35.053 222.567 34.4101 222.567 33.6678C222.567 32.9272 222.709 32.2861 222.99 31.7443C223.273 31.2026 223.677 30.7843 224.204 30.4877C224.732 30.1911 225.365 30.042 226.104 30.042C226.473 30.042 226.835 30.0883 227.192 30.1826C227.547 30.2769 227.861 30.4089 228.129 30.5837C228.303 30.6969 228.406 30.8323 228.441 30.99C228.474 31.1477 228.455 31.29 228.381 31.4203C228.306 31.5506 228.196 31.638 228.048 31.6809C227.899 31.7238 227.735 31.686 227.554 31.566C227.346 31.4323 227.121 31.3363 226.88 31.2763C226.638 31.2163 226.393 31.1855 226.145 31.1855C225.426 31.1855 224.879 31.4015 224.503 31.8318C224.127 32.2621 223.939 32.8758 223.939 33.6695C223.939 34.465 224.127 35.0787 224.503 35.5124C224.879 35.9462 225.427 36.1639 226.145 36.1639C226.4 36.1639 226.652 36.1313 226.901 36.0679C227.149 36.0045 227.384 35.9067 227.606 35.773C227.787 35.6599 227.949 35.6222 228.089 35.6633C228.231 35.7027 228.336 35.785 228.406 35.9085C228.477 36.0319 228.498 36.1673 228.472 36.313C228.444 36.4605 228.355 36.5908 228.199 36.7039C227.93 36.8976 227.61 37.0468 227.237 37.1496C226.864 37.2525 226.487 37.3039 226.104 37.3039Z" fill="#4967A7"/>
<path d="M234.214 37.3039C233.53 37.3039 232.929 37.1531 232.415 36.8531C231.901 36.5531 231.503 36.1296 231.221 35.5862C230.939 35.0427 230.799 34.4033 230.799 33.6678C230.799 32.9272 230.94 32.2861 231.221 31.7443C231.504 31.2026 231.899 30.7843 232.41 30.4877C232.921 30.1911 233.521 30.042 234.214 30.042C234.908 30.042 235.508 30.1911 236.019 30.4877C236.529 30.7843 236.926 31.2043 237.207 31.7443C237.49 32.2843 237.63 32.9221 237.63 33.6575C237.63 34.3981 237.488 35.041 237.207 35.5845C236.924 36.1279 236.529 36.5513 236.019 36.8514C235.508 37.1514 234.906 37.3039 234.214 37.3039ZM234.214 36.2033C234.866 36.2033 235.374 35.9788 235.736 35.5313C236.098 35.0839 236.281 34.4633 236.281 33.6678C236.281 32.8672 236.101 32.2449 235.741 31.8043C235.382 31.3638 234.873 31.1426 234.214 31.1426C233.562 31.1426 233.055 31.362 232.693 31.8043C232.331 32.2449 232.148 32.8655 232.148 33.6678C232.148 34.4633 232.329 35.0839 232.693 35.5313C233.057 35.9788 233.562 36.2033 234.214 36.2033Z" fill="#4967A7"/>
<path d="M241.097 37.285C240.668 37.285 240.452 37.0656 240.452 36.6233V30.7242C240.452 30.2836 240.668 30.0625 241.097 30.0625C241.527 30.0625 241.742 30.2836 241.742 30.7242V33.0883H245.401V30.7242C245.401 30.2836 245.617 30.0625 246.046 30.0625C246.476 30.0625 246.691 30.2836 246.691 30.7242V36.6233C246.691 37.0639 246.476 37.285 246.046 37.285C245.617 37.285 245.401 37.0656 245.401 36.6233V34.1598H241.742V36.6233C241.742 37.0639 241.527 37.285 241.097 37.285Z" fill="#4967A7"/>
<path d="M249.824 37.2853C249.59 37.2853 249.421 37.2047 249.321 37.0453C249.221 36.8858 249.224 36.6921 249.331 36.4641L251.991 30.6045C252.079 30.4108 252.184 30.2719 252.308 30.1896C252.432 30.1056 252.576 30.0645 252.736 30.0645C252.891 30.0645 253.029 30.1056 253.154 30.1896C253.278 30.2736 253.383 30.4108 253.471 30.6045L256.141 36.4641C256.248 36.6973 256.255 36.8927 256.162 37.0504C256.067 37.2081 255.907 37.2853 255.679 37.2853C255.491 37.2853 255.344 37.2407 255.241 37.1498C255.137 37.0607 255.044 36.9218 254.963 36.735L254.459 35.5726H250.992L250.499 36.735C250.411 36.9287 250.321 37.0693 250.226 37.155C250.133 37.2407 250 37.2853 249.824 37.2853ZM252.717 31.5371L251.437 34.5509H254.016L252.736 31.5371H252.717Z" fill="#4967A7"/>
<path d="M264.144 37.285C263.714 37.285 263.498 37.0656 263.498 36.6233V31.2145H260.959V32.6169C260.959 33.4243 260.889 34.1186 260.747 34.6998C260.606 35.281 260.402 35.7713 260.138 36.1724C259.872 36.5736 259.545 36.9062 259.155 37.1736C259.007 37.2799 258.856 37.3193 258.701 37.2885C258.546 37.2593 258.413 37.1702 258.298 37.0227C258.191 36.8685 258.154 36.7193 258.192 36.5719C258.229 36.4244 258.325 36.2976 258.479 36.1913C258.767 35.9976 259.008 35.7404 259.2 35.4198C259.391 35.0992 259.534 34.6861 259.628 34.1786C259.721 33.6712 259.769 33.0403 259.769 32.286V30.8237C259.769 30.3694 259.997 30.1431 260.454 30.1431H264.102C264.559 30.1431 264.787 30.3694 264.787 30.8237V36.6216C264.789 37.0639 264.575 37.285 264.144 37.285Z" fill="#4967A7"/>
<path d="M267.923 37.2853C267.688 37.2853 267.519 37.2047 267.419 37.0453C267.319 36.8858 267.323 36.6921 267.43 36.4641L270.09 30.6045C270.177 30.4108 270.283 30.2719 270.407 30.1896C270.531 30.1056 270.674 30.0645 270.835 30.0645C270.99 30.0645 271.128 30.1056 271.252 30.1896C271.376 30.2736 271.482 30.4108 271.57 30.6045L274.24 36.4641C274.347 36.6973 274.354 36.8927 274.261 37.0504C274.166 37.2081 274.005 37.2853 273.778 37.2853C273.59 37.2853 273.443 37.2407 273.339 37.1498C273.236 37.0607 273.143 36.9218 273.062 36.735L272.558 35.5726H269.091L268.597 36.735C268.509 36.9287 268.42 37.0693 268.325 37.155C268.232 37.2407 268.097 37.2853 267.923 37.2853ZM270.816 31.5371L269.536 34.5509H272.115L270.835 31.5371H270.816Z" fill="#4967A7"/>
<path d="M10.6907 14.1315H0.75293C1.1721 11.5531 2.1864 9.17361 3.64748 7.13525L10.6907 14.1315Z" fill="#4967A7"/>
<path d="M33.9359 19.5723C33.5115 22.1284 32.5024 24.4873 31.0517 26.5119L24.0654 19.5723H33.9359Z" fill="#4967A7"/>
<path d="M10.6337 19.5723L3.64741 26.5119C2.19496 24.4873 1.18584 22.1284 0.759766 19.5723H10.6337Z" fill="#4967A7"/>
<path d="M25.1599 28.5127C23.6367 28.9584 22.3585 29.9802 21.5805 31.3225C21.1613 31.4751 20.6525 31.6276 20.0625 31.7528V23.4468L25.1599 28.5127Z" fill="#4967A7"/>
<path d="M14.5832 23.502V31.7496C14.0157 31.6296 13.5258 31.4822 13.1256 31.3382C12.351 29.9873 11.0694 28.9604 9.54102 28.5147L14.5832 23.502Z" fill="#4967A7"/>
<path d="M14.5834 0.339355V10.1488L7.60059 3.20574C9.63781 1.76569 12.0114 0.762799 14.5834 0.339355Z" fill="#4967A7"/>
<path d="M14.5838 12.8866V14.1295H13.4435L4.87891 5.61774C5.19976 5.26458 5.53268 4.92857 5.88286 4.60627C5.90183 4.58742 5.91736 4.57199 5.93633 4.55485C5.96911 4.52227 6.00016 4.49141 6.03293 4.46398C6.04673 4.45027 6.06053 4.43656 6.07261 4.42627L14.5838 12.8866Z" fill="#EF6F81"/>
<path d="M29.8218 28.0308C29.6924 28.1731 29.5613 28.3137 29.4268 28.4508L29.3698 28.5074C29.306 28.5743 29.2405 28.6377 29.1766 28.7028C28.7161 28.516 28.2262 28.384 27.719 28.3171L20.0635 20.7089V19.5723H21.3141L29.8218 28.0308Z" fill="#EF6F81"/>
<path d="M14.5838 19.5723V20.7603L6.97996 28.3171C6.47108 28.384 5.98463 28.5143 5.52406 28.7028C5.30326 28.4868 5.08591 28.2623 4.87891 28.0308L13.3866 19.5723H14.5838Z" fill="#EF6F81"/>
<path d="M34.1658 16.8227C34.1658 17.4913 34.1261 18.1496 34.0502 18.7959H19.2825V31.8935C18.696 31.9792 18.0508 32.0324 17.3505 32.0324C16.6242 32.0324 15.9601 31.9758 15.365 31.8884V18.7959H0.650731C0.573106 18.1496 0.535156 17.4913 0.535156 16.8227C0.535156 16.173 0.573106 15.5336 0.645556 14.9027H15.365V0.229609C16.017 0.152464 16.6777 0.114746 17.3505 0.114746C18.0042 0.114746 18.6477 0.152461 19.2825 0.221035V14.9027H34.0554C34.1278 15.5353 34.1658 16.173 34.1658 16.8227Z" fill="#EF6F81"/>
<path d="M38.7543 6.2056C38.7543 6.94448 38.1523 7.54279 37.4088 7.54279H36.5549C36.5515 7.54279 36.5497 7.54622 36.5463 7.54622C35.0887 7.55136 33.9088 8.72569 33.9088 10.1743V13.1315H31.2178V10.1743C31.2178 9.40114 31.3868 8.66911 31.6852 8.00738C32.5201 6.16274 34.378 4.87356 36.5446 4.87013C36.548 4.87013 36.5497 4.8667 36.5532 4.8667H37.4071C38.1505 4.86841 38.7543 5.46672 38.7543 6.2056Z" fill="#EF6F81"/>
<path d="M26.9712 30.1467H26.9678C26.9436 30.1416 26.9195 30.1416 26.8953 30.1416C25.3877 30.1416 24.0594 30.9302 23.309 32.1131C23.3418 32.1028 23.3711 32.0891 23.4039 32.0788C23.3746 32.0925 23.3418 32.1062 23.309 32.1165C22.895 32.7662 22.6553 33.5343 22.6553 34.3572C22.6553 36.6784 24.5579 38.5659 26.8953 38.5659C29.231 38.5659 31.1336 36.6784 31.1336 34.3572C31.1336 32.0565 29.2706 30.1845 26.9712 30.1467ZM23.642 32.324V32.3205C23.6713 32.3102 23.6989 32.2999 23.7282 32.2879C23.7006 32.3017 23.6713 32.3137 23.642 32.324Z" fill="#4967A7"/>
<path d="M23.6416 32.3242C23.6711 32.3138 23.7006 32.3034 23.7283 32.2896C23.6989 32.3 23.6711 32.3104 23.6416 32.3225V32.3242Z" fill="#4967A7"/>
<path d="M23.3086 32.1118V32.1153C23.3416 32.1032 23.3745 32.091 23.404 32.0771C23.3711 32.0893 23.3416 32.1014 23.3086 32.1118Z" fill="#4967A7"/>
<path d="M7.87988 30.145H7.87643C7.85228 30.1416 7.82813 30.1416 7.80571 30.1416C6.29806 30.1416 4.96981 30.9285 4.21943 32.1114C4.25221 32.0994 4.28153 32.0874 4.31431 32.0754C4.28498 32.0908 4.25221 32.1011 4.21943 32.1131C3.80371 32.7611 3.56738 33.5309 3.56738 34.3537C3.56738 36.675 5.46833 38.5642 7.80743 38.5642C10.1431 38.5642 12.044 36.675 12.044 34.3537C12.0423 32.0565 10.1828 30.1845 7.87988 30.145Z" fill="#4967A7"/>
<path d="M4.21973 32.1118V32.1153C4.25269 32.1032 4.28566 32.091 4.31515 32.0771C4.28219 32.0893 4.25269 32.1014 4.21973 32.1118Z" fill="#4967A7"/>
</svg>
