<svg width="378" height="55" viewBox="0 0 378 55" fill="none" xmlns="http://www.w3.org/2000/svg">
<path d="M77.912 25.2414H88.9457C89.8382 25.2414 90.4879 25.3439 90.8925 25.5465C91.2971 25.7491 91.5685 26.0686 91.7041 26.5024C91.8398 26.9363 91.9064 27.5108 91.9064 28.2283C91.9064 28.9459 91.8398 29.5228 91.7041 29.9542C91.5685 30.3881 91.34 30.6861 91.0139 30.8482C90.4998 31.1199 89.7977 31.2534 88.9052 31.2534H74.304C72.4119 31.2534 71.3028 30.7385 70.9791 29.7087C70.8172 29.2748 70.7363 28.5859 70.7363 27.6371V5.05014C70.7363 4.42796 70.7578 3.96072 70.7982 3.64844C70.8387 3.33854 70.9672 2.97858 71.1838 2.57094C71.5622 1.8391 72.6165 1.47437 74.3468 1.47437C76.2389 1.47437 77.3622 1.97497 77.7145 2.97857C77.8501 3.43866 77.9168 4.14428 77.9168 5.09067V25.2414H77.912Z" fill="#4967A7"/>
<path d="M95.75 5.05014C95.75 4.42796 95.7714 3.96072 95.8119 3.64844C95.8523 3.33854 95.9809 2.97858 96.1974 2.57094C96.5759 1.8391 97.6302 1.47437 99.3605 1.47437C101.253 1.47437 102.376 1.97497 102.728 2.97857C102.864 3.43866 102.93 4.14428 102.93 5.09067V27.68C102.93 28.3308 102.909 28.8052 102.869 29.1008C102.828 29.3988 102.7 29.7516 102.483 30.1569C102.105 30.8887 101.05 31.2534 99.32 31.2534C97.4279 31.2534 96.3188 30.7385 95.9951 29.7087C95.8333 29.2748 95.7524 28.5859 95.7524 27.6371V5.05014H95.75Z" fill="#4967A7"/>
<path d="M126.038 2.71397C126.295 2.23958 126.68 1.92253 127.194 1.76043C127.708 1.59833 128.351 1.51727 129.122 1.51727C129.893 1.51727 130.514 1.58402 130.988 1.7199C131.462 1.85578 131.812 2.01789 132.042 2.20859C132.271 2.3993 132.44 2.68298 132.549 3.06201C132.711 3.49587 132.792 4.18719 132.792 5.13358V27.68C132.792 28.3308 132.771 28.8052 132.73 29.1008C132.69 29.3988 132.561 29.7516 132.345 30.1569C131.966 30.8887 130.912 31.2534 129.182 31.2534C128.127 31.2534 127.397 31.1724 126.992 31.0103C126.587 30.8482 126.247 30.5907 125.978 30.2379C119.895 22.1137 115.892 16.8049 113.971 14.3114V27.6777C113.971 28.3284 113.95 28.8028 113.909 29.0984C113.869 29.3964 113.74 29.7492 113.524 30.1545C113.145 30.8863 112.091 31.251 110.361 31.251C108.683 31.251 107.657 30.8863 107.278 30.1545C107.062 29.7492 106.933 29.3821 106.893 29.0579C106.852 28.7337 106.831 28.2593 106.831 27.6371V4.9667C106.831 3.93688 106.96 3.18597 107.217 2.71158C107.474 2.2372 107.859 1.92014 108.373 1.75804C108.887 1.59594 109.549 1.51489 110.361 1.51489C111.172 1.51489 111.815 1.58879 112.288 1.73898C112.762 1.88916 113.093 2.05841 113.283 2.24673C113.39 2.32778 113.702 2.6806 114.216 3.30278C119.921 11.0765 123.734 16.2089 125.655 18.7001V4.96909C125.652 3.93927 125.781 3.18836 126.038 2.71397Z" fill="#4967A7"/>
<path d="M151.899 12.8905H159.037C160.498 12.9454 161.388 13.3244 161.715 14.0276C161.986 14.5425 162.119 15.3006 162.119 16.3018V25.2389C162.119 26.1066 161.741 26.9314 160.984 27.7181C158.713 30.0733 155.305 31.2533 150.762 31.2533C146.732 31.2533 143.231 29.7301 140.256 26.6835C137.281 23.6369 135.794 19.9587 135.794 15.6534C135.794 11.3458 137.308 7.75095 140.337 4.86648C143.365 1.98202 146.935 0.539795 151.045 0.539795C154.234 0.539795 157.25 1.59584 160.089 3.70793C160.82 4.24906 161.184 4.85218 161.184 5.51489C161.184 6.17999 160.872 6.94282 160.251 7.81054C159.196 9.24562 158.235 9.96316 157.371 9.96316C156.857 9.96316 156.033 9.59128 154.896 8.84513C153.761 8.10137 152.409 7.72711 150.84 7.72711C148.784 7.72711 146.961 8.4518 145.364 9.90118C143.767 11.3506 142.972 13.2457 142.972 15.589C142.972 17.9324 143.784 19.9229 145.407 21.5606C147.03 23.2007 148.867 24.0183 150.924 24.0183C152.411 24.0183 153.749 23.7752 154.939 23.2865V18.8573H151.735C150.897 18.8573 150.302 18.75 149.95 18.5331C149.598 18.3162 149.369 17.9991 149.26 17.5772C149.151 17.1576 149.098 16.5879 149.098 15.8703C149.098 15.1528 149.16 14.5783 149.281 14.1444C149.403 13.7106 149.627 13.4126 149.95 13.2505C150.44 13.0121 151.09 12.8905 151.899 12.8905Z" fill="#4967A7"/>
<path d="M191.298 1.9628C192.893 2.74947 193.692 3.61481 193.692 4.56358C193.692 4.99744 193.49 5.64824 193.083 6.51358L181.888 29.265C181.59 29.861 181.138 30.3425 180.529 30.7073C179.919 31.072 179.291 31.2556 178.644 31.2556H178.237C177.561 31.2556 176.918 31.072 176.311 30.7073C175.702 30.3425 175.25 29.861 174.952 29.265L163.757 6.51358C163.352 5.64824 163.147 4.99744 163.147 4.56358C163.147 3.61481 163.945 2.74947 165.542 1.9628C166.434 1.50272 167.117 1.27148 167.591 1.27148C168.065 1.27148 168.422 1.32632 168.667 1.43359C168.909 1.54325 169.14 1.73157 169.357 2.00333C169.6 2.32753 169.823 2.68749 170.026 3.08083C170.228 3.47416 170.749 4.59696 171.587 6.45398C172.425 8.30862 173.324 10.2801 174.283 12.3659C175.243 14.4518 176.149 16.4232 177.001 18.2779C177.853 20.1325 178.332 21.1695 178.441 21.3864L186.552 3.59097C186.769 3.07606 186.957 2.6708 187.121 2.37282C187.609 1.64098 188.202 1.27626 188.906 1.27626C189.608 1.27149 190.408 1.50272 191.298 1.9628Z" fill="#4967A7"/>
<path d="M208.841 0.62085C212.842 0.62085 216.317 2.07023 219.266 4.96899C222.212 7.86775 223.688 11.4626 223.688 15.7559C223.688 20.0492 222.281 23.7061 219.47 26.724C216.657 29.7444 213.197 31.2533 209.086 31.2533C204.976 31.2533 201.482 29.7634 198.6 26.7836C195.72 23.8038 194.28 20.2566 194.28 16.1397C194.28 13.8917 194.685 11.7868 195.496 9.82251C196.308 7.85822 197.389 6.21336 198.74 4.88556C200.092 3.55775 201.646 2.51601 203.405 1.75794C205.162 0.999879 206.975 0.62085 208.841 0.62085ZM201.458 15.9371C201.458 18.3472 202.234 20.3043 203.791 21.8085C205.345 23.3127 207.082 24.0636 209.003 24.0636C210.924 24.0636 212.654 23.3318 214.194 21.8705C215.736 20.4068 216.505 18.4449 216.505 15.98C216.505 13.5151 215.726 11.5389 214.172 10.049C212.618 8.55907 210.881 7.81531 208.96 7.81531C207.039 7.81531 205.309 8.56622 203.769 10.0704C202.229 11.5699 201.458 13.527 201.458 15.9371Z" fill="#4967A7"/>
<path d="M252.946 2.2252C253.203 1.75081 253.589 1.43376 254.103 1.27166C254.617 1.10956 255.26 1.02851 256.031 1.02851C256.802 1.02851 257.423 1.09526 257.897 1.23114C258.37 1.36702 258.72 1.52912 258.951 1.71982C259.18 1.91053 259.351 2.19421 259.458 2.57325C259.62 3.00711 259.701 3.69842 259.701 4.64481V27.1913C259.701 27.8421 259.679 28.3164 259.641 28.612C259.601 28.91 259.472 29.2628 259.256 29.6681C258.877 30.3999 257.823 30.7647 256.093 30.7647C255.038 30.7647 254.308 30.6836 253.903 30.5215C253.499 30.3594 253.158 30.102 252.889 29.7491C246.806 21.625 242.803 16.3161 240.882 13.8226V27.1889C240.882 27.8397 240.861 28.3141 240.82 28.6097C240.78 28.9076 240.651 29.2605 240.435 29.6657C240.056 30.3976 239.002 30.7623 237.272 30.7623C235.594 30.7623 234.568 30.3976 234.19 29.6657C233.973 29.2605 233.845 28.8933 233.804 28.5691C233.764 28.2449 233.742 27.7706 233.742 27.1484V4.47794C233.742 3.44812 233.871 2.69721 234.128 2.22282C234.385 1.74843 234.77 1.43138 235.284 1.26928C235.799 1.10718 236.46 1.02612 237.272 1.02612C238.083 1.02612 238.726 1.10002 239.2 1.25021C239.673 1.40039 240.004 1.56964 240.194 1.75797C240.301 1.83902 240.613 2.19183 241.127 2.81401C246.832 10.5877 250.645 15.7202 252.566 18.2113V4.48033C252.561 3.45289 252.689 2.69959 252.946 2.2252Z" fill="#EF6F81"/>
<path d="M280.101 3.10007L291.051 25.7705C291.51 26.6907 291.741 27.382 291.741 27.8421C291.741 28.8171 290.956 29.6967 289.39 30.4834C288.471 30.9434 287.748 31.1747 287.219 31.1747C286.691 31.1747 286.26 31.0531 285.922 30.8099C285.584 30.5668 285.341 30.3093 285.191 30.0376C285.041 29.7682 284.832 29.3606 284.563 28.8194L282.454 24.4308H271.218L269.11 28.8194C268.838 29.3606 268.629 29.7539 268.481 29.9971C268.331 30.2402 268.089 30.4905 267.751 30.748C267.413 31.0054 266.98 31.1341 266.454 31.1341C265.928 31.1341 265.202 30.9029 264.283 30.4428C262.715 29.6848 261.932 28.8171 261.932 27.8421C261.932 27.382 262.16 26.6907 262.622 25.7705L273.572 3.05954C273.87 2.43736 274.322 1.93675 274.931 1.55533C275.54 1.1763 276.181 0.985596 276.859 0.985596C278.318 0.98798 279.398 1.69121 280.101 3.10007ZM276.816 12.85L274.139 18.4163H279.534L276.816 12.85Z" fill="#EF6F81"/>
<path d="M313.177 2.2252C313.434 1.75081 313.82 1.43376 314.334 1.27166C314.848 1.10956 315.491 1.02851 316.262 1.02851C317.033 1.02851 317.654 1.09526 318.128 1.23114C318.601 1.36702 318.951 1.52912 319.182 1.71982C319.411 1.91053 319.579 2.19421 319.689 2.57325C319.851 3.00711 319.932 3.69842 319.932 4.64481V27.1913C319.932 27.8421 319.91 28.3164 319.87 28.612C319.829 28.91 319.701 29.2628 319.484 29.6681C319.106 30.3999 318.052 30.7647 316.321 30.7647C315.267 30.7647 314.536 30.6836 314.132 30.5215C313.727 30.3594 313.387 30.102 313.118 29.7491C307.035 21.625 303.031 16.3161 301.111 13.8226V27.1889C301.111 27.8397 301.089 28.3141 301.049 28.6097C301.008 28.9076 300.88 29.2605 300.663 29.6657C300.285 30.3976 299.23 30.7623 297.5 30.7623C295.822 30.7623 294.797 30.3976 294.418 29.6657C294.202 29.2605 294.073 28.8933 294.033 28.5691C293.992 28.2449 293.971 27.7706 293.971 27.1484V4.47794C293.971 3.44812 294.099 2.69721 294.356 2.22282C294.613 1.74843 294.999 1.43138 295.513 1.26928C296.027 1.10718 296.689 1.02612 297.5 1.02612C298.312 1.02612 298.954 1.10002 299.428 1.25021C299.902 1.40039 300.232 1.56964 300.423 1.75797C300.53 1.83902 300.842 2.19183 301.356 2.81401C307.061 10.5877 310.873 15.7202 312.794 18.2113V4.48033C312.792 3.45289 312.92 2.69959 313.177 2.2252Z" fill="#EF6F81"/>
<path d="M342.382 2.2252C342.639 1.75081 343.025 1.43376 343.539 1.27166C344.053 1.10956 344.695 1.02851 345.466 1.02851C346.238 1.02851 346.859 1.09526 347.332 1.23114C347.806 1.36702 348.156 1.52912 348.387 1.71982C348.615 1.91053 348.784 2.19421 348.894 2.57325C349.056 3.00711 349.136 3.69842 349.136 4.64481V27.1913C349.136 27.8421 349.115 28.3164 349.077 28.612C349.036 28.91 348.908 29.2628 348.691 29.6681C348.313 30.3999 347.259 30.7647 345.528 30.7647C344.474 30.7647 343.743 30.6836 343.339 30.5215C342.934 30.3594 342.594 30.102 342.325 29.7491C336.242 21.625 332.238 16.3161 330.318 13.8226V27.1889C330.318 27.8397 330.296 28.3141 330.256 28.6097C330.215 28.9076 330.087 29.2605 329.87 29.6657C329.492 30.3976 328.438 30.7623 326.707 30.7623C325.029 30.7623 324.004 30.3976 323.625 29.6657C323.409 29.2605 323.28 28.8933 323.24 28.5691C323.199 28.2449 323.178 27.7706 323.178 27.1484V4.47794C323.178 3.44812 323.306 2.69721 323.563 2.22282C323.82 1.74843 324.206 1.43138 324.72 1.26928C325.234 1.10718 325.896 1.02612 326.707 1.02612C327.519 1.02612 328.161 1.10002 328.635 1.25021C329.109 1.40039 329.44 1.56964 329.63 1.75797C329.737 1.83902 330.049 2.19183 330.563 2.81401C336.268 10.5877 340.081 15.7202 342.001 18.2113V4.48033C341.996 3.45289 342.123 2.69959 342.382 2.2252Z" fill="#EF6F81"/>
<path d="M375.985 1.55539C377.311 2.47555 377.973 3.3695 377.973 4.23722C377.973 4.75213 377.661 5.46967 377.04 6.38984L368.279 19.5129V27.2724C368.279 27.8946 368.258 28.3618 368.217 28.6741C368.177 28.9864 368.048 29.3439 367.832 29.7516C367.615 30.1568 367.251 30.4429 366.737 30.605C366.223 30.7671 365.532 30.8482 364.668 30.8482C363.802 30.8482 363.114 30.7671 362.6 30.605C362.086 30.4429 361.722 30.1521 361.505 29.7325C361.289 29.3129 361.16 28.9482 361.12 28.6359C361.079 28.3237 361.058 27.8445 361.058 27.1937V19.5153L352.297 6.39222C351.674 5.47206 351.364 4.75452 351.364 4.2396C351.364 3.37427 351.959 2.53992 353.149 1.74133C354.339 0.942736 355.191 0.542249 355.705 0.542249C356.219 0.542249 356.624 0.65191 356.922 0.866456C357.381 1.16444 357.869 1.71987 358.383 2.53277L364.668 12.6069L370.956 2.53277C371.471 1.71987 371.916 1.18589 372.294 0.928432C372.672 0.670976 373.113 0.542249 373.613 0.542249C374.112 0.539865 374.902 0.878372 375.985 1.55539Z" fill="#EF6F81"/>
<path d="M71.8139 52.0123C71.2213 52.0123 70.9238 51.7071 70.9238 51.0921V43.0299C70.9238 42.3982 71.238 42.0835 71.8687 42.0835H78.5017C79.1324 42.0835 79.4466 42.3982 79.4466 43.0299V51.0921C79.4466 51.7047 79.1491 52.0123 78.5565 52.0123C77.9639 52.0123 77.6664 51.7071 77.6664 51.0921V43.571H72.7017V51.0921C72.7017 51.7047 72.4066 52.0123 71.8139 52.0123Z" fill="#4967A7"/>
<path d="M88.0522 52.0384C87.1074 52.0384 86.2791 51.8286 85.5699 51.4114C84.8607 50.9943 84.3109 50.4055 83.9229 49.6498C83.5326 48.8941 83.3398 48.0049 83.3398 46.9823C83.3398 45.9524 83.535 45.0609 83.9229 44.3076C84.3133 43.5543 84.8583 42.9726 85.5628 42.5602C86.2672 42.1478 87.0979 41.9404 88.0522 41.9404C89.0066 41.9404 89.8372 42.1478 90.5417 42.5602C91.2462 42.9726 91.7936 43.5567 92.1815 44.3076C92.5719 45.0585 92.7646 45.9453 92.7646 46.968C92.7646 47.9978 92.5695 48.8917 92.1815 49.6474C91.7912 50.4031 91.2462 50.9919 90.5417 51.4091C89.8349 51.831 89.0066 52.0384 88.0522 52.0384ZM88.0522 50.508C88.9519 50.508 89.6516 50.1957 90.1514 49.5735C90.6512 48.9513 90.9011 48.0884 90.9011 46.9823C90.9011 45.869 90.6536 45.0037 90.1562 44.391C89.6611 43.7784 88.959 43.4709 88.0499 43.4709C87.1502 43.4709 86.4505 43.776 85.9507 44.391C85.4509 45.0037 85.201 45.8666 85.201 46.9823C85.201 48.0884 85.4509 48.9513 85.9507 49.5735C86.4529 50.1957 87.1526 50.508 88.0522 50.508Z" fill="#4967A7"/>
<path d="M96.2974 54.3102C95.7691 54.3102 95.5049 54.0408 95.5049 53.5021V51.3018C95.5049 50.7535 95.7833 50.4794 96.3403 50.4794H96.4783C97.3494 49.3828 97.7849 47.44 97.7849 44.6437V43.0274C97.7849 42.3957 98.0991 42.0811 98.7298 42.0811H103.778C104.408 42.0811 104.723 42.3957 104.723 43.0274V50.4794H105.28C105.836 50.4794 106.115 50.7535 106.115 51.3018V53.5021C106.115 54.0408 105.855 54.3102 105.337 54.3102C104.799 54.3102 104.53 54.0408 104.53 53.5021V51.9001H97.0924V53.5021C97.09 54.0408 96.8258 54.3102 96.2974 54.3102ZM98.2847 50.4794H102.928V43.5018H99.439V44.8106C99.439 46.1479 99.3438 47.2755 99.1534 48.1956C98.9654 49.1158 98.6751 49.8762 98.2847 50.4794Z" fill="#4967A7"/>
<path d="M110.52 51.9003C109.889 51.9003 109.575 51.5856 109.575 50.9539V43.0299C109.575 42.3982 109.889 42.0835 110.52 42.0835H115.775C116.256 42.0835 116.499 42.3147 116.499 42.7796C116.499 43.2635 116.258 43.5043 115.775 43.5043H111.284V46.179H114.009C115.056 46.179 115.875 46.4198 116.463 46.9037C117.051 47.3876 117.346 48.0956 117.346 49.0348C117.346 49.9646 117.051 50.6749 116.463 51.166C115.875 51.6571 115.056 51.905 114.009 51.905H110.52V51.9003ZM111.286 50.4795H113.79C115.013 50.4795 115.625 49.9955 115.625 49.0301C115.625 48.0741 115.013 47.595 113.79 47.595H111.286V50.4795Z" fill="#4967A7"/>
<path d="M125.412 52.0384C124.467 52.0384 123.639 51.8286 122.929 51.4114C122.22 50.9943 121.67 50.4055 121.282 49.6498C120.892 48.8941 120.699 48.0049 120.699 46.9823C120.699 45.9524 120.894 45.0609 121.282 44.3076C121.673 43.5543 122.218 42.9726 122.922 42.5602C123.627 42.1478 124.457 41.9404 125.412 41.9404C126.366 41.9404 127.197 42.1478 127.901 42.5602C128.606 42.9726 129.153 43.5567 129.541 44.3076C129.931 45.0585 130.124 45.9453 130.124 46.968C130.124 47.9978 129.929 48.8917 129.541 49.6474C129.151 50.4031 128.606 50.9919 127.901 51.4091C127.194 51.831 126.366 52.0384 125.412 52.0384ZM125.412 50.508C126.311 50.508 127.011 50.1957 127.511 49.5735C128.011 48.9513 128.26 48.0884 128.26 46.9823C128.26 45.869 128.013 45.0037 127.516 44.391C127.02 43.7784 126.318 43.4709 125.409 43.4709C124.51 43.4709 123.81 43.776 123.31 44.391C122.81 45.0037 122.56 45.8666 122.56 46.9823C122.56 48.0884 122.81 48.9513 123.31 49.5735C123.812 50.1957 124.512 50.508 125.412 50.508Z" fill="#4967A7"/>
<path d="M134.908 52.0122C134.315 52.0122 134.018 51.707 134.018 51.092V42.9869C134.018 42.3838 134.317 42.0811 134.922 42.0811H138.273C139.349 42.0811 140.177 42.3504 140.763 42.8892C141.346 43.4279 141.638 44.1788 141.638 45.1443C141.638 46.1098 141.346 46.8654 140.763 47.4066C140.179 47.9501 139.349 48.2218 138.273 48.2218H135.798V51.0896C135.798 51.7047 135.5 52.0122 134.908 52.0122ZM135.798 46.8178H137.995C139.273 46.8178 139.913 46.2599 139.913 45.1467C139.913 44.043 139.273 43.4899 137.995 43.4899H135.798V46.8178Z" fill="#4967A7"/>
<path d="M150.937 54.3102C150.409 54.3102 150.145 54.0408 150.145 53.5021V51.3018C150.145 50.7535 150.423 50.4794 150.98 50.4794H151.118C151.989 49.3828 152.425 47.44 152.425 44.6437V43.0274C152.425 42.3957 152.739 42.0811 153.369 42.0811H158.417C159.048 42.0811 159.362 42.3957 159.362 43.0274V50.4794H159.919C160.476 50.4794 160.755 50.7535 160.755 51.3018V53.5021C160.755 54.0408 160.495 54.3102 159.976 54.3102C159.438 54.3102 159.169 54.0408 159.169 53.5021V51.9001H151.73V53.5021C151.73 54.0408 151.465 54.3102 150.937 54.3102ZM152.927 50.4794H157.57V43.5018H154.081V44.8106C154.081 46.1479 153.986 47.2755 153.795 48.1956C153.605 49.1158 153.315 49.8762 152.927 50.4794Z" fill="#4967A7"/>
<path d="M168.609 52.0384C167.664 52.0384 166.836 51.8286 166.127 51.4114C165.417 50.9943 164.868 50.4055 164.48 49.6498C164.089 48.8941 163.896 48.0049 163.896 46.9823C163.896 45.9524 164.092 45.0609 164.48 44.3076C164.87 43.5543 165.415 42.9726 166.119 42.5602C166.824 42.1478 167.654 41.9404 168.609 41.9404C169.563 41.9404 170.394 42.1478 171.098 42.5602C171.803 42.9726 172.35 43.5567 172.738 44.3076C173.128 45.0585 173.321 45.9453 173.321 46.968C173.321 47.9978 173.126 48.8917 172.738 49.6474C172.348 50.4031 171.803 50.9919 171.098 51.4091C170.394 51.831 169.563 52.0384 168.609 52.0384ZM168.609 50.508C169.509 50.508 170.208 50.1957 170.708 49.5735C171.208 48.9513 171.458 48.0884 171.458 46.9823C171.458 45.869 171.21 45.0037 170.713 44.391C170.218 43.7784 169.516 43.4709 168.606 43.4709C167.707 43.4709 167.007 43.776 166.507 44.391C166.008 45.0037 165.758 45.8666 165.758 46.9823C165.758 48.0884 166.008 48.9513 166.507 49.5735C167.012 50.1957 167.712 50.508 168.609 50.508Z" fill="#4967A7"/>
<path d="M178.05 52.0122C177.512 52.0122 177.243 51.7333 177.243 51.1755V42.8057C177.243 42.2479 177.522 41.969 178.079 41.969C178.309 41.969 178.493 42.0143 178.628 42.1025C178.762 42.1907 178.885 42.3409 178.997 42.5554L182.208 48.5008L185.418 42.5554C185.53 42.3409 185.649 42.1907 185.78 42.1025C185.911 42.0143 186.09 41.969 186.323 41.969C186.861 41.969 187.13 42.2479 187.13 42.8057V51.1755C187.13 51.7333 186.861 52.0122 186.323 52.0122C185.785 52.0122 185.516 51.7333 185.516 51.1755V45.2849L182.903 50.0622C182.81 50.2195 182.712 50.3363 182.61 50.4102C182.508 50.4841 182.37 50.5223 182.194 50.5223C182.017 50.5223 181.875 50.4841 181.763 50.4031C181.651 50.3244 181.553 50.21 181.47 50.0622L178.857 45.3136V51.1755C178.857 51.7333 178.588 52.0122 178.05 52.0122Z" fill="#4967A7"/>
<path d="M191.466 52.0122C191.142 52.0122 190.909 51.9002 190.771 51.6785C190.633 51.4568 190.638 51.1874 190.785 50.8704L194.455 42.7224C194.577 42.453 194.722 42.2599 194.893 42.1455C195.064 42.0286 195.262 41.9714 195.483 41.9714C195.698 41.9714 195.888 42.0286 196.059 42.1455C196.231 42.2623 196.376 42.453 196.497 42.7224L200.181 50.8704C200.329 51.1946 200.339 51.4663 200.21 51.6857C200.079 51.905 199.858 52.0122 199.544 52.0122C199.284 52.0122 199.082 51.9503 198.939 51.8239C198.796 51.7 198.668 51.5069 198.556 51.247L197.861 49.6308H193.077L192.397 51.247C192.275 51.5164 192.151 51.7119 192.02 51.8311C191.892 51.9503 191.709 52.0122 191.466 52.0122ZM195.457 44.0192L193.691 48.21H197.252L195.486 44.0192H195.457Z" fill="#4967A7"/>
<path d="M204.744 51.9002C204.113 51.9002 203.799 51.5855 203.799 50.9538V42.8916C203.799 42.2789 204.092 41.9714 204.675 41.9714C205.258 41.9714 205.551 42.2789 205.551 42.8916V50.4126H209.289V42.8916C209.289 42.2789 209.582 41.9714 210.165 41.9714C210.748 41.9714 211.041 42.2789 211.041 42.8916V50.4126H214.78V42.8916C214.78 42.2789 215.073 41.9714 215.656 41.9714C216.239 41.9714 216.532 42.2789 216.532 42.8916V50.9538C216.532 51.5855 216.218 51.9002 215.587 51.9002H204.744Z" fill="#4967A7"/>
<path d="M221.652 52.0122C221.059 52.0122 220.762 51.7071 220.762 51.092V42.8892C220.762 42.2765 221.059 41.969 221.652 41.969C222.244 41.969 222.542 42.2765 222.542 42.8892V46.1765H227.59V42.8892C227.59 42.2765 227.887 41.969 228.48 41.969C229.073 41.969 229.37 42.2765 229.37 42.8892V51.092C229.37 51.7047 229.073 52.0122 228.48 52.0122C227.887 52.0122 227.59 51.7071 227.59 51.092V47.6664H222.542V51.092C222.542 51.7047 222.244 52.0122 221.652 52.0122Z" fill="#4967A7"/>
<path d="M234.54 51.9002C233.909 51.9002 233.595 51.5855 233.595 50.9538V43.0299C233.595 42.3982 233.909 42.0835 234.54 42.0835H239.504C239.987 42.0835 240.228 42.3147 240.228 42.7796C240.228 43.2635 239.987 43.5043 239.504 43.5043H235.306V46.2052H239.2C239.68 46.2052 239.923 46.4412 239.923 46.9156C239.923 47.39 239.683 47.626 239.2 47.626H235.306V50.4818H239.504C239.987 50.4818 240.228 50.7178 240.228 51.1922C240.228 51.6666 239.987 51.9026 239.504 51.9026H234.54V51.9002Z" fill="#4967A7"/>
<path d="M244.871 52.0123C244.278 52.0123 243.98 51.7071 243.98 51.0921V43.0013C243.98 42.3886 244.287 42.0835 244.899 42.0835H249.807C250.316 42.0835 250.571 42.329 250.571 42.8225C250.571 43.3231 250.316 43.5734 249.807 43.5734H245.761V51.0945C245.761 51.7047 245.463 52.0123 244.871 52.0123Z" fill="#4967A7"/>
<path d="M258.092 52.0384C257.147 52.0384 256.319 51.8286 255.61 51.4114C254.901 50.9943 254.351 50.4055 253.963 49.6498C253.573 48.8941 253.38 48.0049 253.38 46.9823C253.38 45.9524 253.575 45.0609 253.963 44.3076C254.353 43.5543 254.898 42.9726 255.603 42.5602C256.307 42.1478 257.136 41.9404 258.092 41.9404C259.049 41.9404 259.877 42.1478 260.582 42.5602C261.286 42.9726 261.834 43.5567 262.222 44.3076C262.612 45.0585 262.805 45.9453 262.805 46.968C262.805 47.9978 262.61 48.8917 262.222 49.6474C261.831 50.4031 261.286 50.9919 260.582 51.4091C259.877 51.8262 259.047 52.0384 258.092 52.0384ZM258.092 50.508C258.992 50.508 259.692 50.1957 260.191 49.5735C260.691 48.9513 260.944 48.0884 260.944 46.9823C260.944 45.869 260.696 45.0037 260.199 44.391C259.704 43.7784 259.001 43.4709 258.092 43.4709C257.193 43.4709 256.493 43.776 255.993 44.391C255.493 45.0037 255.241 45.8666 255.241 46.9823C255.241 48.0884 255.491 48.9513 255.993 49.5735C256.495 50.1957 257.193 50.508 258.092 50.508Z" fill="#4967A7"/>
<path d="M273.443 52.0123C272.85 52.0123 272.553 51.7071 272.553 51.0921V43.0299C272.553 42.3982 272.867 42.0835 273.498 42.0835H280.131C280.761 42.0835 281.075 42.3982 281.075 43.0299V51.0921C281.075 51.7047 280.778 52.0123 280.185 52.0123C279.593 52.0123 279.295 51.7071 279.295 51.0921V43.571H274.331V51.0921C274.331 51.7047 274.035 52.0123 273.443 52.0123Z" fill="#4967A7"/>
<path d="M286.233 51.9002C285.602 51.9002 285.288 51.5855 285.288 50.9538V43.0299C285.288 42.3982 285.602 42.0835 286.233 42.0835H291.198C291.681 42.0835 291.921 42.3147 291.921 42.7796C291.921 43.2635 291.681 43.5043 291.198 43.5043H286.999V46.2052H290.893C291.374 46.2052 291.616 46.4412 291.616 46.9156C291.616 47.39 291.376 47.626 290.893 47.626H286.999V50.4818H291.198C291.681 50.4818 291.921 50.7178 291.921 51.1922C291.921 51.6666 291.681 51.9026 291.198 51.9026H286.233V51.9002Z" fill="#4967A7"/>
<path d="M296.562 52.0122C295.969 52.0122 295.672 51.707 295.672 51.092V42.9869C295.672 42.3838 295.974 42.0811 296.576 42.0811H299.927C301.003 42.0811 301.831 42.3504 302.417 42.8892C303 43.4279 303.293 44.1788 303.293 45.1443C303.293 46.1098 303 46.8654 302.417 47.4066C301.834 47.9501 301.003 48.2218 299.927 48.2218H297.452V51.0896C297.452 51.7047 297.157 52.0122 296.562 52.0122ZM297.452 46.8178H299.649C300.927 46.8178 301.567 46.2599 301.567 45.1467C301.567 44.043 300.927 43.4899 299.649 43.4899H297.452V46.8178Z" fill="#4967A7"/>
<path d="M311.247 52.0384C310.229 52.0384 309.355 51.831 308.627 51.4186C307.898 51.0062 307.342 50.4198 306.951 49.6641C306.561 48.9084 306.368 48.0145 306.368 46.9823C306.368 45.9524 306.563 45.0609 306.951 44.3076C307.342 43.5543 307.898 42.9726 308.627 42.5602C309.355 42.1478 310.229 41.9404 311.247 41.9404C311.756 41.9404 312.256 42.0048 312.749 42.1359C313.239 42.267 313.672 42.4506 314.041 42.6937C314.282 42.8511 314.424 43.0394 314.472 43.2587C314.517 43.478 314.491 43.6759 314.389 43.857C314.286 44.0382 314.134 44.1598 313.929 44.2194C313.725 44.279 313.499 44.2265 313.249 44.0597C312.961 43.8737 312.651 43.7402 312.318 43.6568C311.985 43.5734 311.647 43.5304 311.304 43.5304C310.312 43.5304 309.557 43.8308 309.039 44.4292C308.52 45.0275 308.26 45.8809 308.26 46.9846C308.26 48.0907 308.52 48.9442 309.039 49.5473C309.557 50.1504 310.314 50.4531 311.304 50.4531C311.656 50.4531 312.004 50.4079 312.347 50.3196C312.689 50.2314 313.013 50.0956 313.32 49.9096C313.57 49.7523 313.794 49.6998 313.987 49.7571C314.182 49.8119 314.327 49.9263 314.424 50.098C314.522 50.2696 314.551 50.4579 314.515 50.6605C314.477 50.8655 314.353 51.0467 314.139 51.204C313.768 51.4734 313.325 51.6808 312.811 51.8239C312.297 51.9669 311.775 52.0384 311.247 52.0384Z" fill="#4967A7"/>
<path d="M322.437 52.0384C321.492 52.0384 320.664 51.8286 319.955 51.4114C319.245 50.9943 318.696 50.4055 318.308 49.6498C317.917 48.8941 317.725 48.0049 317.725 46.9823C317.725 45.9524 317.92 45.0609 318.308 44.3076C318.698 43.5543 319.243 42.9726 319.948 42.5602C320.652 42.1478 321.48 41.9404 322.437 41.9404C323.394 41.9404 324.222 42.1478 324.926 42.5602C325.631 42.9726 326.178 43.5567 326.566 44.3076C326.957 45.0585 327.149 45.9453 327.149 46.968C327.149 47.9978 326.954 48.8917 326.566 49.6474C326.176 50.4031 325.631 50.9919 324.926 51.4091C324.222 51.8262 323.391 52.0384 322.437 52.0384ZM322.437 50.508C323.337 50.508 324.036 50.1957 324.536 49.5735C325.036 48.9513 325.288 48.0884 325.288 46.9823C325.288 45.869 325.041 45.0037 324.543 44.391C324.048 43.7784 323.346 43.4709 322.437 43.4709C321.537 43.4709 320.838 43.776 320.338 44.391C319.838 45.0037 319.586 45.8666 319.586 46.9823C319.586 48.0884 319.836 48.9513 320.338 49.5735C320.84 50.1957 321.537 50.508 322.437 50.508Z" fill="#4967A7"/>
<path d="M331.934 52.0122C331.341 52.0122 331.044 51.7071 331.044 51.092V42.8892C331.044 42.2765 331.341 41.969 331.934 41.969C332.527 41.969 332.824 42.2765 332.824 42.8892V46.1765H337.872V42.8892C337.872 42.2765 338.17 41.969 338.762 41.969C339.355 41.969 339.652 42.2765 339.652 42.8892V51.092C339.652 51.7047 339.355 52.0122 338.762 52.0122C338.17 52.0122 337.872 51.7071 337.872 51.092V47.6664H332.824V51.092C332.824 51.7047 332.527 52.0122 331.934 52.0122Z" fill="#4967A7"/>
<path d="M343.974 52.0122C343.65 52.0122 343.417 51.9002 343.279 51.6785C343.141 51.4568 343.146 51.1874 343.293 50.8704L346.963 42.7224C347.084 42.453 347.23 42.2599 347.401 42.1455C347.572 42.0286 347.77 41.9714 347.991 41.9714C348.205 41.9714 348.396 42.0286 348.567 42.1455C348.739 42.2623 348.884 42.453 349.005 42.7224L352.689 50.8704C352.837 51.1946 352.846 51.4663 352.718 51.6857C352.587 51.905 352.366 52.0122 352.051 52.0122C351.792 52.0122 351.59 51.9503 351.447 51.8239C351.304 51.7 351.176 51.5069 351.064 51.247L350.369 49.6308H345.585L344.904 51.247C344.783 51.5164 344.659 51.7119 344.528 51.8311C344.4 51.9503 344.217 52.0122 343.974 52.0122ZM347.965 44.0192L346.199 48.21H349.757L347.991 44.0192H347.965Z" fill="#4967A7"/>
<path d="M363.73 52.0122C363.138 52.0122 362.84 51.707 362.84 51.092V43.571H359.337V45.521C359.337 46.6437 359.239 47.6092 359.044 48.4173C358.849 49.2255 358.568 49.9072 358.204 50.4651C357.837 51.0229 357.385 51.4853 356.847 51.8572C356.643 52.005 356.435 52.0599 356.221 52.0169C356.007 51.9764 355.824 51.8525 355.664 51.6475C355.517 51.4329 355.467 51.2255 355.519 51.0205C355.569 50.8155 355.702 50.6391 355.914 50.4913C356.312 50.2219 356.645 49.8643 356.909 49.4185C357.173 48.9728 357.371 48.3983 357.499 47.6926C357.628 46.987 357.695 46.1098 357.695 45.0609V43.0274C357.695 42.3957 358.009 42.0811 358.639 42.0811H363.673C364.304 42.0811 364.618 42.3957 364.618 43.0274V51.0896C364.62 51.7047 364.325 52.0122 363.73 52.0122Z" fill="#4967A7"/>
<path d="M368.945 52.0122C368.622 52.0122 368.389 51.9002 368.25 51.6785C368.112 51.4568 368.117 51.1874 368.265 50.8704L371.935 42.7224C372.056 42.453 372.201 42.2599 372.373 42.1455C372.544 42.0286 372.742 41.9714 372.963 41.9714C373.177 41.9714 373.367 42.0286 373.539 42.1455C373.71 42.2623 373.855 42.453 373.977 42.7224L377.661 50.8704C377.809 51.1946 377.818 51.4663 377.69 51.6857C377.559 51.905 377.337 52.0122 377.023 52.0122C376.764 52.0122 376.561 51.9503 376.419 51.8239C376.276 51.7 376.147 51.5069 376.035 51.247L375.34 49.6308H370.557L369.876 51.247C369.755 51.5164 369.631 51.7119 369.5 51.8311C369.371 51.9503 369.186 52.0122 368.945 52.0122ZM372.937 44.0192L371.171 48.21H374.729L372.963 44.0192H372.937Z" fill="#4967A7"/>
<path d="M14.0393 19.8159H0.328125C0.906465 16.2306 2.3059 12.9218 4.32176 10.0874L14.0393 19.8159Z" fill="#4967A7"/>
<path d="M46.1125 27.3821C45.527 30.9364 44.1347 34.2166 42.1331 37.0319L32.4941 27.3821H46.1125Z" fill="#4967A7"/>
<path d="M13.961 27.3821L4.32201 37.0319C2.31805 34.2166 0.925751 30.9364 0.337891 27.3821H13.961Z" fill="#4967A7"/>
<path d="M34.0026 39.8141C31.9011 40.4339 30.1375 41.8546 29.0641 43.7212C28.4858 43.9334 27.7837 44.1455 26.9697 44.3195V32.7698L34.0026 39.8141Z" fill="#4967A7"/>
<path d="M19.4108 32.8459V44.3146C18.6278 44.1478 17.9519 43.9427 17.3997 43.7425C16.3311 41.864 14.5628 40.4361 12.4541 39.8163L19.4108 32.8459Z" fill="#4967A7"/>
<path d="M19.4106 0.637695V14.2781L9.77637 4.6235C12.5871 2.62106 15.862 1.22651 19.4106 0.637695Z" fill="#4967A7"/>
<path d="M19.4114 18.0851V19.8134H17.8382L6.02148 7.97757C6.46416 7.4865 6.92351 7.01927 7.40665 6.5711C7.43283 6.54488 7.45424 6.52343 7.48042 6.49959C7.52564 6.4543 7.56848 6.41138 7.6137 6.37324C7.63274 6.35417 7.65179 6.3351 7.66845 6.3208L19.4114 18.0851Z" fill="#EF6F81"/>
<path d="M40.4363 39.144C40.2578 39.3418 40.0769 39.5373 39.8913 39.728L39.8127 39.8067C39.7247 39.8997 39.6342 39.9879 39.5462 40.0784C38.9107 39.8186 38.2348 39.635 37.5351 39.5421L26.9727 28.9626V27.3821H28.6982L40.4363 39.144Z" fill="#EF6F81"/>
<path d="M19.4114 27.3821V29.0341L8.92032 39.5421C8.21822 39.6351 7.54706 39.8162 6.91161 40.0784C6.60697 39.7781 6.30708 39.4658 6.02148 39.144L17.7596 27.3821H19.4114Z" fill="#EF6F81"/>
<path d="M46.4288 23.5584C46.4288 24.4881 46.3741 25.4035 46.2693 26.3023H25.8942V44.5149C25.085 44.6341 24.1948 44.708 23.2286 44.708C22.2266 44.708 21.3103 44.6293 20.4892 44.5077V26.3023H0.18778C0.0806799 25.4035 0.0283203 24.4881 0.0283203 23.5584C0.0283203 22.655 0.0806802 21.7658 0.18064 20.8885H20.4892V0.485161C21.3888 0.377887 22.3004 0.325439 23.2286 0.325439C24.1306 0.325439 25.0183 0.377883 25.8942 0.473237V20.8885H46.2765C46.3764 21.7682 46.4288 22.655 46.4288 23.5584Z" fill="#EF6F81"/>
<path d="M52.7595 8.79538C52.7595 9.82282 51.9289 10.6548 50.9031 10.6548H49.725C49.7203 10.6548 49.7179 10.6595 49.7131 10.6595C47.702 10.6667 46.0741 12.2996 46.0741 14.314V18.4261H42.3613V14.314C42.3613 13.2389 42.5946 12.221 43.0063 11.3008C44.1582 8.73578 46.7215 6.94313 49.7108 6.93837C49.7155 6.93837 49.7179 6.93359 49.7227 6.93359H50.9008C51.9265 6.93598 52.7595 7.76794 52.7595 8.79538Z" fill="#EF6F81"/>
<path d="M36.5016 42.0858H36.4969C36.4636 42.0786 36.4302 42.0786 36.3969 42.0786C34.3168 42.0786 32.4842 43.1752 31.4489 44.82C31.4941 44.8057 31.5346 44.7867 31.5798 44.7724C31.5393 44.7914 31.4941 44.8105 31.4489 44.8248C30.8777 45.7283 30.5469 46.7962 30.5469 47.9405C30.5469 51.1682 33.172 53.7928 36.3969 53.7928C39.6194 53.7928 42.2446 51.1682 42.2446 47.9405C42.2446 44.7414 39.6742 42.1382 36.5016 42.0858ZM31.9082 45.1132V45.1085C31.9487 45.0942 31.9868 45.0799 32.0272 45.0632C31.9892 45.0822 31.9487 45.0989 31.9082 45.1132Z" fill="#4967A7"/>
<path d="M31.9082 45.1133C31.9487 45.099 31.9891 45.0847 32.0272 45.0657C31.9867 45.08 31.9487 45.0943 31.9082 45.1109V45.1133Z" fill="#4967A7"/>
<path d="M31.4492 44.8177V44.8225C31.4944 44.8058 31.5397 44.7891 31.5801 44.77C31.5349 44.7867 31.4944 44.8034 31.4492 44.8177Z" fill="#4967A7"/>
<path d="M10.1629 42.0834H10.1581C10.1248 42.0786 10.0915 42.0786 10.0605 42.0786C7.98043 42.0786 6.14783 43.1728 5.11253 44.8177C5.15775 44.801 5.19821 44.7843 5.24343 44.7676C5.20297 44.789 5.15775 44.8034 5.11253 44.82C4.53895 45.7211 4.21289 46.7915 4.21289 47.9357C4.21289 51.1635 6.83565 53.7905 10.0629 53.7905C13.2855 53.7905 15.9082 51.1635 15.9082 47.9357C15.9058 44.7414 13.3402 42.1382 10.1629 42.0834Z" fill="#4967A7"/>
<path d="M5.1123 44.8177V44.8225C5.15752 44.8058 5.20274 44.7891 5.2432 44.77C5.19798 44.7867 5.15752 44.8034 5.1123 44.8177Z" fill="#4967A7"/>
</svg>
