<svg width="378" height="55" viewBox="0 0 378 55" fill="none" xmlns="http://www.w3.org/2000/svg">
<path d="M77.911 25.2414H88.9447C89.8372 25.2414 90.487 25.3439 90.8916 25.5465C91.2962 25.7491 91.5675 26.0686 91.7031 26.5024C91.8388 26.9363 91.9054 27.5108 91.9054 28.2283C91.9054 28.9459 91.8388 29.5228 91.7031 29.9542C91.5675 30.3881 91.339 30.6861 91.0129 30.8482C90.4989 31.1199 89.7968 31.2534 88.9043 31.2534H74.303C72.4109 31.2534 71.3018 30.7385 70.9781 29.7087C70.8163 29.2748 70.7354 28.5859 70.7354 27.6371V5.05014C70.7354 4.42796 70.7568 3.96072 70.7972 3.64844C70.8377 3.33854 70.9662 2.97858 71.1828 2.57094C71.5612 1.8391 72.6156 1.47437 74.3458 1.47437C76.2379 1.47437 77.3613 1.97497 77.7135 2.97857C77.8492 3.43866 77.9158 4.14428 77.9158 5.09067V25.2414H77.911Z" fill="#4967A7"/>
<path d="M95.749 5.05014C95.749 4.42796 95.7704 3.96072 95.8109 3.64844C95.8514 3.33854 95.9799 2.97858 96.1965 2.57094C96.5749 1.8391 97.6292 1.47437 99.3595 1.47437C101.252 1.47437 102.375 1.97497 102.727 2.97857C102.863 3.43866 102.929 4.14428 102.929 5.09067V27.68C102.929 28.3308 102.908 28.8052 102.868 29.1008C102.827 29.3988 102.699 29.7516 102.482 30.1569C102.104 30.8887 101.049 31.2534 99.319 31.2534C97.4269 31.2534 96.3178 30.7385 95.9942 29.7087C95.8323 29.2748 95.7514 28.5859 95.7514 27.6371V5.05014H95.749Z" fill="#4967A7"/>
<path d="M126.037 2.71397C126.294 2.23958 126.68 1.92253 127.194 1.76043C127.708 1.59833 128.351 1.51727 129.122 1.51727C129.893 1.51727 130.514 1.58402 130.988 1.7199C131.461 1.85578 131.811 2.01789 132.042 2.20859C132.27 2.3993 132.439 2.68298 132.549 3.06201C132.711 3.49587 132.792 4.18719 132.792 5.13358V27.68C132.792 28.3308 132.77 28.8052 132.73 29.1008C132.689 29.3988 132.561 29.7516 132.344 30.1569C131.966 30.8887 130.911 31.2534 129.181 31.2534C128.127 31.2534 127.396 31.1724 126.992 31.0103C126.587 30.8482 126.247 30.5907 125.978 30.2379C119.894 22.1137 115.891 16.8049 113.971 14.3114V27.6777C113.971 28.3284 113.949 28.8028 113.909 29.0984C113.868 29.3964 113.74 29.7492 113.523 30.1545C113.145 30.8863 112.09 31.251 110.36 31.251C108.682 31.251 107.656 30.8863 107.278 30.1545C107.061 29.7492 106.933 29.3821 106.892 29.0579C106.852 28.7337 106.831 28.2593 106.831 27.6371V4.9667C106.831 3.93688 106.959 3.18597 107.216 2.71158C107.473 2.2372 107.859 1.92014 108.373 1.75804C108.887 1.59594 109.549 1.51489 110.36 1.51489C111.172 1.51489 111.814 1.58879 112.288 1.73898C112.762 1.88916 113.092 2.05841 113.283 2.24673C113.39 2.32778 113.702 2.6806 114.216 3.30278C119.921 11.0765 123.733 16.2089 125.654 18.7001V4.96909C125.652 3.93927 125.78 3.18836 126.037 2.71397Z" fill="#4967A7"/>
<path d="M151.898 12.8905H159.036C160.497 12.9454 161.387 13.3244 161.713 14.0276C161.984 14.5425 162.118 15.3006 162.118 16.3018V25.2389C162.118 26.1066 161.739 26.9314 160.982 27.7181C158.712 30.0733 155.304 31.2533 150.76 31.2533C146.731 31.2533 143.23 29.7301 140.255 26.6835C137.28 23.6369 135.792 19.9587 135.792 15.6534C135.792 11.3458 137.306 7.75095 140.336 4.86648C143.363 1.98202 146.933 0.539795 151.044 0.539795C154.233 0.539795 157.248 1.59584 160.088 3.70793C160.818 4.24906 161.182 4.85218 161.182 5.51489C161.182 6.17999 160.871 6.94282 160.249 7.81054C159.195 9.24562 158.233 9.96316 157.37 9.96316C156.855 9.96316 156.032 9.59128 154.894 8.84513C153.759 8.10137 152.407 7.72711 150.839 7.72711C148.783 7.72711 146.959 8.4518 145.362 9.90118C143.765 11.3506 142.971 13.2457 142.971 15.589C142.971 17.9324 143.782 19.9229 145.405 21.5606C147.028 23.2007 148.866 24.0183 150.922 24.0183C152.41 24.0183 153.747 23.7752 154.937 23.2865V18.8573H151.734C150.896 18.8573 150.301 18.75 149.949 18.5331C149.596 18.3162 149.368 17.9991 149.259 17.5772C149.149 17.1576 149.097 16.5879 149.097 15.8703C149.097 15.1528 149.159 14.5783 149.28 14.1444C149.401 13.7106 149.625 13.4126 149.949 13.2505C150.439 13.0121 151.089 12.8905 151.898 12.8905Z" fill="#4967A7"/>
<path d="M191.297 1.9628C192.891 2.74947 193.691 3.61481 193.691 4.56358C193.691 4.99744 193.489 5.64824 193.082 6.51358L181.886 29.265C181.589 29.861 181.136 30.3425 180.527 30.7073C179.918 31.072 179.29 31.2556 178.642 31.2556H178.235C177.559 31.2556 176.917 31.072 176.31 30.7073C175.7 30.3425 175.248 29.861 174.951 29.265L163.755 6.51358C163.351 5.64824 163.146 4.99744 163.146 4.56358C163.146 3.61481 163.943 2.74947 165.54 1.9628C166.433 1.50272 167.116 1.27148 167.589 1.27148C168.063 1.27148 168.42 1.32632 168.665 1.43359C168.908 1.54325 169.139 1.73157 169.355 2.00333C169.598 2.32753 169.822 2.68749 170.024 3.08083C170.227 3.47416 170.748 4.59696 171.585 6.45398C172.423 8.30862 173.323 10.2801 174.282 12.3659C175.241 14.4518 176.148 16.4232 177 18.2779C177.852 20.1325 178.33 21.1695 178.44 21.3864L186.551 3.59097C186.768 3.07606 186.956 2.6708 187.12 2.37282C187.608 1.64098 188.2 1.27626 188.905 1.27626C189.607 1.27149 190.407 1.50272 191.297 1.9628Z" fill="#4967A7"/>
<path d="M208.84 0.62085C212.84 0.62085 216.315 2.07023 219.264 4.96899C222.21 7.86775 223.686 11.4626 223.686 15.7559C223.686 20.0492 222.28 23.7061 219.469 26.724C216.656 29.7444 213.195 31.2533 209.085 31.2533C204.975 31.2533 201.481 29.7634 198.598 26.7836C195.719 23.8038 194.279 20.2566 194.279 16.1397C194.279 13.8917 194.683 11.7868 195.495 9.82251C196.307 7.85822 197.387 6.21336 198.739 4.88556C200.091 3.55775 201.645 2.51601 203.404 1.75794C205.16 0.999879 206.974 0.62085 208.84 0.62085ZM201.457 15.9371C201.457 18.3472 202.233 20.3043 203.789 21.8085C205.343 23.3127 207.081 24.0636 209.001 24.0636C210.922 24.0636 212.652 23.3318 214.192 21.8705C215.734 20.4068 216.503 18.4449 216.503 15.98C216.503 13.5151 215.725 11.5389 214.171 10.049C212.617 8.55907 210.879 7.81531 208.959 7.81531C207.038 7.81531 205.308 8.56622 203.768 10.0704C202.228 11.5699 201.457 13.527 201.457 15.9371Z" fill="#4967A7"/>
<path d="M252.946 2.2252C253.203 1.75081 253.589 1.43376 254.103 1.27166C254.617 1.10956 255.259 1.02851 256.03 1.02851C256.802 1.02851 257.423 1.09526 257.896 1.23114C258.37 1.36702 258.72 1.52912 258.951 1.71982C259.179 1.91053 259.351 2.19421 259.458 2.57325C259.619 3.00711 259.7 3.69842 259.7 4.64481V27.1913C259.7 27.8421 259.679 28.3164 259.641 28.612C259.6 28.91 259.472 29.2628 259.255 29.6681C258.877 30.3999 257.823 30.7647 256.092 30.7647C255.038 30.7647 254.307 30.6836 253.903 30.5215C253.498 30.3594 253.158 30.102 252.889 29.7491C246.806 21.625 242.802 16.3161 240.882 13.8226V27.1889C240.882 27.8397 240.86 28.3141 240.82 28.6097C240.779 28.9076 240.651 29.2605 240.434 29.6657C240.056 30.3976 239.001 30.7623 237.271 30.7623C235.593 30.7623 234.568 30.3976 234.189 29.6657C233.973 29.2605 233.844 28.8933 233.804 28.5691C233.763 28.2449 233.742 27.7706 233.742 27.1484V4.47794C233.742 3.44812 233.87 2.69721 234.127 2.22282C234.384 1.74843 234.77 1.43138 235.284 1.26928C235.798 1.10718 236.46 1.02612 237.271 1.02612C238.083 1.02612 238.725 1.10002 239.199 1.25021C239.673 1.40039 240.003 1.56964 240.194 1.75797C240.301 1.83902 240.613 2.19183 241.127 2.81401C246.832 10.5877 250.644 15.7202 252.565 18.2113V4.48033C252.56 3.45289 252.689 2.69959 252.946 2.2252Z" fill="#EF6F81"/>
<path d="M280.099 3.10007L291.049 25.7705C291.509 26.6907 291.74 27.382 291.74 27.8421C291.74 28.8171 290.954 29.6967 289.388 30.4834C288.47 30.9434 287.746 31.1747 287.218 31.1747C286.689 31.1747 286.259 31.0531 285.921 30.8099C285.583 30.5668 285.34 30.3093 285.19 30.0376C285.04 29.7682 284.831 29.3606 284.562 28.8194L282.453 24.4308H271.217L269.108 28.8194C268.837 29.3606 268.627 29.7539 268.48 29.9971C268.33 30.2402 268.087 30.4905 267.749 30.748C267.411 31.0054 266.978 31.1341 266.452 31.1341C265.926 31.1341 265.2 30.9029 264.282 30.4428C262.713 29.6848 261.93 28.8171 261.93 27.8421C261.93 27.382 262.159 26.6907 262.62 25.7705L273.571 3.05954C273.868 2.43736 274.32 1.93675 274.93 1.55533C275.539 1.1763 276.179 0.985596 276.858 0.985596C278.316 0.98798 279.397 1.69121 280.099 3.10007ZM276.815 12.85L274.137 18.4163H279.533L276.815 12.85Z" fill="#EF6F81"/>
<path d="M313.176 2.2252C313.433 1.75081 313.819 1.43376 314.333 1.27166C314.847 1.10956 315.49 1.02851 316.261 1.02851C317.032 1.02851 317.653 1.09526 318.127 1.23114C318.6 1.36702 318.95 1.52912 319.181 1.71982C319.41 1.91053 319.579 2.19421 319.688 2.57325C319.85 3.00711 319.931 3.69842 319.931 4.64481V27.1913C319.931 27.8421 319.909 28.3164 319.869 28.612C319.828 28.91 319.7 29.2628 319.483 29.6681C319.105 30.3999 318.051 30.7647 316.32 30.7647C315.266 30.7647 314.535 30.6836 314.131 30.5215C313.726 30.3594 313.386 30.102 313.117 29.7491C307.034 21.625 303.03 16.3161 301.11 13.8226V27.1889C301.11 27.8397 301.088 28.3141 301.048 28.6097C301.007 28.9076 300.879 29.2605 300.662 29.6657C300.284 30.3976 299.23 30.7623 297.499 30.7623C295.821 30.7623 294.796 30.3976 294.417 29.6657C294.201 29.2605 294.072 28.8933 294.032 28.5691C293.991 28.2449 293.97 27.7706 293.97 27.1484V4.47794C293.97 3.44812 294.098 2.69721 294.355 2.22282C294.612 1.74843 294.998 1.43138 295.512 1.26928C296.026 1.10718 296.688 1.02612 297.499 1.02612C298.311 1.02612 298.953 1.10002 299.427 1.25021C299.901 1.40039 300.232 1.56964 300.422 1.75797C300.529 1.83902 300.841 2.19183 301.355 2.81401C307.06 10.5877 310.872 15.7202 312.793 18.2113V4.48033C312.791 3.45289 312.919 2.69959 313.176 2.2252Z" fill="#EF6F81"/>
<path d="M342.381 2.2252C342.639 1.75081 343.024 1.43376 343.538 1.27166C344.052 1.10956 344.695 1.02851 345.466 1.02851C346.237 1.02851 346.858 1.09526 347.332 1.23114C347.806 1.36702 348.155 1.52912 348.386 1.71982C348.615 1.91053 348.784 2.19421 348.893 2.57325C349.055 3.00711 349.136 3.69842 349.136 4.64481V27.1913C349.136 27.8421 349.115 28.3164 349.076 28.612C349.036 28.91 348.907 29.2628 348.691 29.6681C348.312 30.3999 347.258 30.7647 345.528 30.7647C344.474 30.7647 343.743 30.6836 343.338 30.5215C342.934 30.3594 342.593 30.102 342.324 29.7491C336.241 21.625 332.238 16.3161 330.317 13.8226V27.1889C330.317 27.8397 330.296 28.3141 330.255 28.6097C330.215 28.9076 330.086 29.2605 329.87 29.6657C329.491 30.3976 328.437 30.7623 326.707 30.7623C325.029 30.7623 324.003 30.3976 323.625 29.6657C323.408 29.2605 323.28 28.8933 323.239 28.5691C323.199 28.2449 323.177 27.7706 323.177 27.1484V4.47794C323.177 3.44812 323.306 2.69721 323.563 2.22282C323.82 1.74843 324.205 1.43138 324.719 1.26928C325.234 1.10718 325.895 1.02612 326.707 1.02612C327.518 1.02612 328.161 1.10002 328.635 1.25021C329.108 1.40039 329.439 1.56964 329.629 1.75797C329.737 1.83902 330.048 2.19183 330.562 2.81401C336.267 10.5877 340.08 15.7202 342.001 18.2113V4.48033C341.996 3.45289 342.122 2.69959 342.381 2.2252Z" fill="#EF6F81"/>
<path d="M375.985 1.55539C377.311 2.47555 377.972 3.3695 377.972 4.23722C377.972 4.75213 377.66 5.46967 377.039 6.38984L368.278 19.5129V27.2724C368.278 27.8946 368.257 28.3618 368.217 28.6741C368.176 28.9864 368.048 29.3439 367.831 29.7516C367.614 30.1568 367.25 30.4429 366.736 30.605C366.222 30.7671 365.532 30.8482 364.668 30.8482C363.802 30.8482 363.114 30.7671 362.6 30.605C362.086 30.4429 361.722 30.1521 361.505 29.7325C361.288 29.3129 361.16 28.9482 361.119 28.6359C361.079 28.3237 361.058 27.8445 361.058 27.1937V19.5153L352.297 6.39222C351.673 5.47206 351.364 4.75452 351.364 4.2396C351.364 3.37427 351.959 2.53992 353.149 1.74133C354.339 0.942736 355.191 0.542249 355.705 0.542249C356.219 0.542249 356.624 0.65191 356.921 0.866456C357.38 1.16444 357.868 1.71987 358.382 2.53277L364.668 12.6069L370.956 2.53277C371.47 1.71987 371.915 1.18589 372.294 0.928432C372.672 0.670976 373.112 0.542249 373.612 0.542249C374.112 0.539865 374.902 0.878372 375.985 1.55539Z" fill="#EF6F81"/>
<path d="M71.8135 52.0123C71.2208 52.0123 70.9233 51.7071 70.9233 51.0921V43.0299C70.9233 42.3982 71.2375 42.0835 71.8682 42.0835H78.5012C79.1319 42.0835 79.4461 42.3982 79.4461 43.0299V51.0921C79.4461 51.7047 79.1486 52.0123 78.556 52.0123C77.9634 52.0123 77.6659 51.7071 77.6659 51.0921V43.571H72.7012V51.0921C72.7012 51.7047 72.4061 52.0123 71.8135 52.0123Z" fill="#4967A7"/>
<path d="M88.0522 52.0384C87.1074 52.0384 86.2791 51.8286 85.5699 51.4114C84.8607 50.9943 84.3109 50.4055 83.9229 49.6498C83.5326 48.8941 83.3398 48.0049 83.3398 46.9823C83.3398 45.9524 83.535 45.0609 83.9229 44.3076C84.3133 43.5543 84.8583 42.9726 85.5628 42.5602C86.2672 42.1478 87.0979 41.9404 88.0522 41.9404C89.0066 41.9404 89.8372 42.1478 90.5417 42.5602C91.2462 42.9726 91.7936 43.5567 92.1815 44.3076C92.5719 45.0585 92.7646 45.9453 92.7646 46.968C92.7646 47.9978 92.5695 48.8917 92.1815 49.6474C91.7912 50.4031 91.2462 50.9919 90.5417 51.4091C89.8349 51.831 89.0066 52.0384 88.0522 52.0384ZM88.0522 50.508C88.9519 50.508 89.6516 50.1957 90.1514 49.5735C90.6512 48.9513 90.9011 48.0884 90.9011 46.9823C90.9011 45.869 90.6536 45.0037 90.1562 44.391C89.6611 43.7784 88.959 43.4709 88.0499 43.4709C87.1502 43.4709 86.4505 43.776 85.9507 44.391C85.4509 45.0037 85.201 45.8666 85.201 46.9823C85.201 48.0884 85.4509 48.9513 85.9507 49.5735C86.4529 50.1957 87.1526 50.508 88.0522 50.508Z" fill="#4967A7"/>
<path d="M96.2964 54.3102C95.7681 54.3102 95.5039 54.0408 95.5039 53.5021V51.3018C95.5039 50.7535 95.7824 50.4794 96.3393 50.4794H96.4773C97.3484 49.3828 97.7839 47.44 97.7839 44.6437V43.0274C97.7839 42.3957 98.0981 42.0811 98.7288 42.0811H103.777C104.407 42.0811 104.722 42.3957 104.722 43.0274V50.4794H105.279C105.835 50.4794 106.114 50.7535 106.114 51.3018V53.5021C106.114 54.0408 105.855 54.3102 105.336 54.3102C104.798 54.3102 104.529 54.0408 104.529 53.5021V51.9001H97.0914V53.5021C97.089 54.0408 96.8248 54.3102 96.2964 54.3102ZM98.2838 50.4794H102.927V43.5018H99.438V44.8106C99.438 46.1479 99.3428 47.2755 99.1524 48.1956C98.9644 49.1158 98.6741 49.8762 98.2838 50.4794Z" fill="#4967A7"/>
<path d="M110.52 51.9003C109.889 51.9003 109.575 51.5856 109.575 50.9539V43.0299C109.575 42.3982 109.889 42.0835 110.52 42.0835H115.775C116.255 42.0835 116.498 42.3147 116.498 42.7796C116.498 43.2635 116.258 43.5043 115.775 43.5043H111.284V46.179H114.009C115.056 46.179 115.875 46.4198 116.462 46.9037C117.05 47.3876 117.345 48.0956 117.345 49.0348C117.345 49.9646 117.05 50.6749 116.462 51.166C115.875 51.6571 115.056 51.905 114.009 51.905H110.52V51.9003ZM111.286 50.4795H113.79C115.013 50.4795 115.625 49.9955 115.625 49.0301C115.625 48.0741 115.013 47.595 113.79 47.595H111.286V50.4795Z" fill="#4967A7"/>
<path d="M125.411 52.0384C124.466 52.0384 123.638 51.8286 122.929 51.4114C122.22 50.9943 121.67 50.4055 121.282 49.6498C120.891 48.8941 120.699 48.0049 120.699 46.9823C120.699 45.9524 120.894 45.0609 121.282 44.3076C121.672 43.5543 122.217 42.9726 122.922 42.5602C123.626 42.1478 124.457 41.9404 125.411 41.9404C126.366 41.9404 127.196 42.1478 127.901 42.5602C128.605 42.9726 129.152 43.5567 129.54 44.3076C129.931 45.0585 130.124 45.9453 130.124 46.968C130.124 47.9978 129.928 48.8917 129.54 49.6474C129.15 50.4031 128.605 50.9919 127.901 51.4091C127.194 51.831 126.366 52.0384 125.411 52.0384ZM125.411 50.508C126.311 50.508 127.01 50.1957 127.51 49.5735C128.01 48.9513 128.26 48.0884 128.26 46.9823C128.26 45.869 128.012 45.0037 127.515 44.391C127.02 43.7784 126.318 43.4709 125.409 43.4709C124.509 43.4709 123.809 43.776 123.31 44.391C122.81 45.0037 122.56 45.8666 122.56 46.9823C122.56 48.0884 122.81 48.9513 123.31 49.5735C123.812 50.1957 124.511 50.508 125.411 50.508Z" fill="#4967A7"/>
<path d="M134.907 52.0122C134.315 52.0122 134.017 51.707 134.017 51.092V42.9869C134.017 42.3838 134.317 42.0811 134.922 42.0811H138.273C139.348 42.0811 140.177 42.3504 140.762 42.8892C141.345 43.4279 141.638 44.1788 141.638 45.1443C141.638 46.1098 141.345 46.8654 140.762 47.4066C140.179 47.9501 139.348 48.2218 138.273 48.2218H135.797V51.0896C135.797 51.7047 135.5 52.0122 134.907 52.0122ZM135.797 46.8178H137.994C139.272 46.8178 139.912 46.2599 139.912 45.1467C139.912 44.043 139.272 43.4899 137.994 43.4899H135.797V46.8178Z" fill="#4967A7"/>
<path d="M150.937 54.3102C150.408 54.3102 150.144 54.0408 150.144 53.5021V51.3018C150.144 50.7535 150.423 50.4794 150.979 50.4794H151.117C151.989 49.3828 152.424 47.44 152.424 44.6437V43.0274C152.424 42.3957 152.738 42.0811 153.369 42.0811H158.417C159.048 42.0811 159.362 42.3957 159.362 43.0274V50.4794H159.919C160.476 50.4794 160.754 50.7535 160.754 51.3018V53.5021C160.754 54.0408 160.495 54.3102 159.976 54.3102C159.438 54.3102 159.169 54.0408 159.169 53.5021V51.9001H151.729V53.5021C151.729 54.0408 151.465 54.3102 150.937 54.3102ZM152.926 50.4794H157.57V43.5018H154.081V44.8106C154.081 46.1479 153.985 47.2755 153.795 48.1956C153.605 49.1158 153.314 49.8762 152.926 50.4794Z" fill="#4967A7"/>
<path d="M168.608 52.0384C167.663 52.0384 166.835 51.8286 166.126 51.4114C165.416 50.9943 164.867 50.4055 164.479 49.6498C164.088 48.8941 163.896 48.0049 163.896 46.9823C163.896 45.9524 164.091 45.0609 164.479 44.3076C164.869 43.5543 165.414 42.9726 166.118 42.5602C166.823 42.1478 167.654 41.9404 168.608 41.9404C169.562 41.9404 170.393 42.1478 171.097 42.5602C171.802 42.9726 172.349 43.5567 172.737 44.3076C173.128 45.0585 173.32 45.9453 173.32 46.968C173.32 47.9978 173.125 48.8917 172.737 49.6474C172.347 50.4031 171.802 50.9919 171.097 51.4091C170.393 51.831 169.562 52.0384 168.608 52.0384ZM168.608 50.508C169.508 50.508 170.207 50.1957 170.707 49.5735C171.207 48.9513 171.457 48.0884 171.457 46.9823C171.457 45.869 171.209 45.0037 170.712 44.391C170.217 43.7784 169.515 43.4709 168.606 43.4709C167.706 43.4709 167.006 43.776 166.506 44.391C166.007 45.0037 165.757 45.8666 165.757 46.9823C165.757 48.0884 166.007 48.9513 166.506 49.5735C167.011 50.1957 167.711 50.508 168.608 50.508Z" fill="#4967A7"/>
<path d="M178.049 52.0122C177.512 52.0122 177.243 51.7333 177.243 51.1755V42.8057C177.243 42.2479 177.521 41.969 178.078 41.969C178.309 41.969 178.492 42.0143 178.628 42.1025C178.761 42.1907 178.885 42.3409 178.997 42.5554L182.207 48.5008L185.418 42.5554C185.53 42.3409 185.649 42.1907 185.78 42.1025C185.911 42.0143 186.089 41.969 186.322 41.969C186.86 41.969 187.129 42.2479 187.129 42.8057V51.1755C187.129 51.7333 186.86 52.0122 186.322 52.0122C185.784 52.0122 185.516 51.7333 185.516 51.1755V45.2849L182.902 50.0622C182.809 50.2195 182.712 50.3363 182.61 50.4102C182.507 50.4841 182.369 50.5223 182.193 50.5223C182.017 50.5223 181.874 50.4841 181.762 50.4031C181.65 50.3244 181.553 50.21 181.47 50.0622L178.856 45.3136V51.1755C178.856 51.7333 178.587 52.0122 178.049 52.0122Z" fill="#4967A7"/>
<path d="M191.465 52.0122C191.142 52.0122 190.909 51.9002 190.77 51.6785C190.632 51.4568 190.637 51.1874 190.785 50.8704L194.455 42.7224C194.576 42.453 194.721 42.2599 194.893 42.1455C195.064 42.0286 195.262 41.9714 195.483 41.9714C195.697 41.9714 195.887 42.0286 196.059 42.1455C196.23 42.2623 196.375 42.453 196.497 42.7224L200.181 50.8704C200.329 51.1946 200.338 51.4663 200.21 51.6857C200.079 51.905 199.857 52.0122 199.543 52.0122C199.284 52.0122 199.081 51.9503 198.939 51.8239C198.796 51.7 198.667 51.5069 198.555 51.247L197.86 49.6308H193.077L192.396 51.247C192.275 51.5164 192.151 51.7119 192.02 51.8311C191.891 51.9503 191.708 52.0122 191.465 52.0122ZM195.457 44.0192L193.691 48.21H197.251L195.485 44.0192H195.457Z" fill="#4967A7"/>
<path d="M204.744 51.9002C204.113 51.9002 203.799 51.5855 203.799 50.9538V42.8916C203.799 42.2789 204.092 41.9714 204.675 41.9714C205.258 41.9714 205.551 42.2789 205.551 42.8916V50.4126H209.289V42.8916C209.289 42.2789 209.582 41.9714 210.165 41.9714C210.748 41.9714 211.041 42.2789 211.041 42.8916V50.4126H214.78V42.8916C214.78 42.2789 215.073 41.9714 215.656 41.9714C216.239 41.9714 216.532 42.2789 216.532 42.8916V50.9538C216.532 51.5855 216.218 51.9002 215.587 51.9002H204.744Z" fill="#4967A7"/>
<path d="M221.651 52.0122C221.058 52.0122 220.761 51.7071 220.761 51.092V42.8892C220.761 42.2765 221.058 41.969 221.651 41.969C222.243 41.969 222.541 42.2765 222.541 42.8892V46.1765H227.589V42.8892C227.589 42.2765 227.886 41.969 228.479 41.969C229.072 41.969 229.369 42.2765 229.369 42.8892V51.092C229.369 51.7047 229.072 52.0122 228.479 52.0122C227.886 52.0122 227.589 51.7071 227.589 51.092V47.6664H222.541V51.092C222.541 51.7047 222.243 52.0122 221.651 52.0122Z" fill="#4967A7"/>
<path d="M234.539 51.9002C233.908 51.9002 233.594 51.5855 233.594 50.9538V43.0299C233.594 42.3982 233.908 42.0835 234.539 42.0835H239.503C239.986 42.0835 240.227 42.3147 240.227 42.7796C240.227 43.2635 239.986 43.5043 239.503 43.5043H235.305V46.2052H239.199C239.679 46.2052 239.922 46.4412 239.922 46.9156C239.922 47.39 239.682 47.626 239.199 47.626H235.305V50.4818H239.503C239.986 50.4818 240.227 50.7178 240.227 51.1922C240.227 51.6666 239.986 51.9026 239.503 51.9026H234.539V51.9002Z" fill="#4967A7"/>
<path d="M244.871 52.0123C244.278 52.0123 243.98 51.7071 243.98 51.0921V43.0013C243.98 42.3886 244.287 42.0835 244.899 42.0835H249.807C250.316 42.0835 250.571 42.329 250.571 42.8225C250.571 43.3231 250.316 43.5734 249.807 43.5734H245.761V51.0945C245.761 51.7047 245.463 52.0123 244.871 52.0123Z" fill="#4967A7"/>
<path d="M258.091 52.0384C257.146 52.0384 256.318 51.8286 255.609 51.4114C254.9 50.9943 254.35 50.4055 253.962 49.6498C253.572 48.8941 253.379 48.0049 253.379 46.9823C253.379 45.9524 253.574 45.0609 253.962 44.3076C254.352 43.5543 254.897 42.9726 255.602 42.5602C256.306 42.1478 257.135 41.9404 258.091 41.9404C259.048 41.9404 259.876 42.1478 260.581 42.5602C261.285 42.9726 261.833 43.5567 262.221 44.3076C262.611 45.0585 262.804 45.9453 262.804 46.968C262.804 47.9978 262.609 48.8917 262.221 49.6474C261.83 50.4031 261.285 50.9919 260.581 51.4091C259.876 51.8262 259.046 52.0384 258.091 52.0384ZM258.091 50.508C258.991 50.508 259.691 50.1957 260.19 49.5735C260.69 48.9513 260.943 48.0884 260.943 46.9823C260.943 45.869 260.695 45.0037 260.198 44.391C259.703 43.7784 259 43.4709 258.091 43.4709C257.192 43.4709 256.492 43.776 255.992 44.391C255.492 45.0037 255.24 45.8666 255.24 46.9823C255.24 48.0884 255.49 48.9513 255.992 49.5735C256.494 50.1957 257.192 50.508 258.091 50.508Z" fill="#4967A7"/>
<path d="M273.442 52.0123C272.85 52.0123 272.552 51.7071 272.552 51.0921V43.0299C272.552 42.3982 272.866 42.0835 273.497 42.0835H280.13C280.761 42.0835 281.075 42.3982 281.075 43.0299V51.0921C281.075 51.7047 280.777 52.0123 280.185 52.0123C279.592 52.0123 279.295 51.7071 279.295 51.0921V43.571H274.33V51.0921C274.33 51.7047 274.035 52.0123 273.442 52.0123Z" fill="#4967A7"/>
<path d="M286.232 51.9002C285.602 51.9002 285.288 51.5855 285.288 50.9538V43.0299C285.288 42.3982 285.602 42.0835 286.232 42.0835H291.197C291.68 42.0835 291.921 42.3147 291.921 42.7796C291.921 43.2635 291.68 43.5043 291.197 43.5043H286.999V46.2052H290.892C291.373 46.2052 291.616 46.4412 291.616 46.9156C291.616 47.39 291.376 47.626 290.892 47.626H286.999V50.4818H291.197C291.68 50.4818 291.921 50.7178 291.921 51.1922C291.921 51.6666 291.68 51.9026 291.197 51.9026H286.232V51.9002Z" fill="#4967A7"/>
<path d="M296.561 52.0122C295.969 52.0122 295.671 51.707 295.671 51.092V42.9869C295.671 42.3838 295.974 42.0811 296.576 42.0811H299.927C301.003 42.0811 301.831 42.3504 302.416 42.8892C302.999 43.4279 303.292 44.1788 303.292 45.1443C303.292 46.1098 302.999 46.8654 302.416 47.4066C301.833 47.9501 301.003 48.2218 299.927 48.2218H297.452V51.0896C297.452 51.7047 297.156 52.0122 296.561 52.0122ZM297.452 46.8178H299.648C300.926 46.8178 301.567 46.2599 301.567 45.1467C301.567 44.043 300.926 43.4899 299.648 43.4899H297.452V46.8178Z" fill="#4967A7"/>
<path d="M311.246 52.0384C310.228 52.0384 309.354 51.831 308.626 51.4186C307.898 51.0062 307.341 50.4198 306.95 49.6641C306.56 48.9084 306.367 48.0145 306.367 46.9823C306.367 45.9524 306.562 45.0609 306.95 44.3076C307.341 43.5543 307.898 42.9726 308.626 42.5602C309.354 42.1478 310.228 41.9404 311.246 41.9404C311.755 41.9404 312.255 42.0048 312.748 42.1359C313.238 42.267 313.671 42.4506 314.04 42.6937C314.281 42.8511 314.423 43.0394 314.471 43.2587C314.516 43.478 314.49 43.6759 314.388 43.857C314.285 44.0382 314.133 44.1598 313.928 44.2194C313.724 44.279 313.498 44.2265 313.248 44.0597C312.96 43.8737 312.65 43.7402 312.317 43.6568C311.984 43.5734 311.646 43.5304 311.303 43.5304C310.311 43.5304 309.556 43.8308 309.038 44.4292C308.519 45.0275 308.259 45.8809 308.259 46.9846C308.259 48.0907 308.519 48.9442 309.038 49.5473C309.556 50.1504 310.313 50.4531 311.303 50.4531C311.656 50.4531 312.003 50.4079 312.346 50.3196C312.688 50.2314 313.012 50.0956 313.319 49.9096C313.569 49.7523 313.793 49.6998 313.986 49.7571C314.181 49.8119 314.326 49.9263 314.423 50.098C314.521 50.2696 314.55 50.4579 314.514 50.6605C314.476 50.8655 314.352 51.0467 314.138 51.204C313.767 51.4734 313.324 51.6808 312.81 51.8239C312.296 51.9669 311.775 52.0384 311.246 52.0384Z" fill="#4967A7"/>
<path d="M322.437 52.0384C321.492 52.0384 320.664 51.8286 319.955 51.4114C319.245 50.9943 318.696 50.4055 318.308 49.6498C317.917 48.8941 317.725 48.0049 317.725 46.9823C317.725 45.9524 317.92 45.0609 318.308 44.3076C318.698 43.5543 319.243 42.9726 319.948 42.5602C320.652 42.1478 321.48 41.9404 322.437 41.9404C323.394 41.9404 324.222 42.1478 324.926 42.5602C325.631 42.9726 326.178 43.5567 326.566 44.3076C326.957 45.0585 327.149 45.9453 327.149 46.968C327.149 47.9978 326.954 48.8917 326.566 49.6474C326.176 50.4031 325.631 50.9919 324.926 51.4091C324.222 51.8262 323.391 52.0384 322.437 52.0384ZM322.437 50.508C323.337 50.508 324.036 50.1957 324.536 49.5735C325.036 48.9513 325.288 48.0884 325.288 46.9823C325.288 45.869 325.041 45.0037 324.543 44.391C324.048 43.7784 323.346 43.4709 322.437 43.4709C321.537 43.4709 320.838 43.776 320.338 44.391C319.838 45.0037 319.586 45.8666 319.586 46.9823C319.586 48.0884 319.836 48.9513 320.338 49.5735C320.84 50.1957 321.537 50.508 322.437 50.508Z" fill="#4967A7"/>
<path d="M331.933 52.0122C331.34 52.0122 331.043 51.7071 331.043 51.092V42.8892C331.043 42.2765 331.34 41.969 331.933 41.969C332.526 41.969 332.823 42.2765 332.823 42.8892V46.1765H337.871V42.8892C337.871 42.2765 338.169 41.969 338.761 41.969C339.354 41.969 339.651 42.2765 339.651 42.8892V51.092C339.651 51.7047 339.354 52.0122 338.761 52.0122C338.169 52.0122 337.871 51.7071 337.871 51.092V47.6664H332.823V51.092C332.823 51.7047 332.526 52.0122 331.933 52.0122Z" fill="#4967A7"/>
<path d="M343.973 52.0122C343.65 52.0122 343.416 51.9002 343.278 51.6785C343.14 51.4568 343.145 51.1874 343.293 50.8704L346.963 42.7224C347.084 42.453 347.229 42.2599 347.4 42.1455C347.572 42.0286 347.769 41.9714 347.991 41.9714C348.205 41.9714 348.395 42.0286 348.567 42.1455C348.738 42.2623 348.883 42.453 349.005 42.7224L352.689 50.8704C352.836 51.1946 352.846 51.4663 352.717 51.6857C352.587 51.905 352.365 52.0122 352.051 52.0122C351.792 52.0122 351.589 51.9503 351.446 51.8239C351.304 51.7 351.175 51.5069 351.063 51.247L350.368 49.6308H345.585L344.904 51.247C344.782 51.5164 344.659 51.7119 344.528 51.8311C344.399 51.9503 344.216 52.0122 343.973 52.0122ZM347.965 44.0192L346.199 48.21H349.757L347.991 44.0192H347.965Z" fill="#4967A7"/>
<path d="M363.73 52.0122C363.138 52.0122 362.84 51.707 362.84 51.092V43.571H359.337V45.521C359.337 46.6437 359.239 47.6092 359.044 48.4173C358.849 49.2255 358.568 49.9072 358.204 50.4651C357.837 51.0229 357.385 51.4853 356.847 51.8572C356.643 52.005 356.435 52.0599 356.221 52.0169C356.007 51.9764 355.824 51.8525 355.664 51.6475C355.517 51.4329 355.467 51.2255 355.519 51.0205C355.569 50.8155 355.702 50.6391 355.914 50.4913C356.312 50.2219 356.645 49.8643 356.909 49.4185C357.173 48.9728 357.371 48.3983 357.499 47.6926C357.628 46.987 357.695 46.1098 357.695 45.0609V43.0274C357.695 42.3957 358.009 42.0811 358.639 42.0811H363.673C364.304 42.0811 364.618 42.3957 364.618 43.0274V51.0896C364.62 51.7047 364.325 52.0122 363.73 52.0122Z" fill="#4967A7"/>
<path d="M368.944 52.0122C368.621 52.0122 368.388 51.9002 368.249 51.6785C368.111 51.4568 368.116 51.1874 368.264 50.8704L371.934 42.7224C372.055 42.453 372.2 42.2599 372.372 42.1455C372.543 42.0286 372.741 41.9714 372.962 41.9714C373.176 41.9714 373.366 42.0286 373.538 42.1455C373.709 42.2623 373.854 42.453 373.976 42.7224L377.66 50.8704C377.808 51.1946 377.817 51.4663 377.689 51.6857C377.558 51.905 377.336 52.0122 377.022 52.0122C376.763 52.0122 376.56 51.9503 376.418 51.8239C376.275 51.7 376.146 51.5069 376.034 51.247L375.339 49.6308H370.556L369.875 51.247C369.754 51.5164 369.63 51.7119 369.499 51.8311C369.37 51.9503 369.185 52.0122 368.944 52.0122ZM372.936 44.0192L371.17 48.21H374.728L372.962 44.0192H372.936Z" fill="#4967A7"/>
<path d="M14.0388 19.8159H0.327637C0.905977 16.2306 2.30542 12.9218 4.32128 10.0874L14.0388 19.8159Z" fill="#4967A7"/>
<path d="M46.1115 27.3821C45.526 30.9364 44.1337 34.2166 42.1322 37.0319L32.4932 27.3821H46.1115Z" fill="#4967A7"/>
<path d="M13.9605 27.3821L4.32152 37.0319C2.31756 34.2166 0.925262 30.9364 0.337402 27.3821H13.9605Z" fill="#4967A7"/>
<path d="M34.0026 39.8141C31.9011 40.4339 30.1375 41.8546 29.0641 43.7212C28.4858 43.9334 27.7837 44.1455 26.9697 44.3195V32.7698L34.0026 39.8141Z" fill="#4967A7"/>
<path d="M19.4104 32.8459V44.3146C18.6273 44.1478 17.9514 43.9427 17.3993 43.7425C16.3306 41.864 14.5623 40.4361 12.4536 39.8163L19.4104 32.8459Z" fill="#4967A7"/>
<path d="M19.4106 0.637695V14.2781L9.77637 4.6235C12.5871 2.62106 15.862 1.22651 19.4106 0.637695Z" fill="#4967A7"/>
<path d="M19.4104 18.0851V19.8134H17.8372L6.02051 7.97757C6.46319 7.4865 6.92253 7.01927 7.40567 6.5711C7.43185 6.54488 7.45327 6.52343 7.47945 6.49959C7.52467 6.4543 7.56751 6.41138 7.61273 6.37324C7.63177 6.35417 7.65081 6.3351 7.66747 6.3208L19.4104 18.0851Z" fill="#EF6F81"/>
<path d="M40.4358 39.144C40.2573 39.3418 40.0764 39.5373 39.8908 39.728L39.8123 39.8067C39.7242 39.8997 39.6338 39.9879 39.5457 40.0784C38.9102 39.8186 38.2343 39.6351 37.5346 39.5421L26.9722 28.9626V27.3821H28.6977L40.4358 39.144Z" fill="#EF6F81"/>
<path d="M19.4104 27.3821V29.0341L8.91935 39.5421C8.21725 39.6351 7.54609 39.8162 6.91063 40.0784C6.60599 39.7781 6.30611 39.4658 6.02051 39.144L17.7587 27.3821H19.4104Z" fill="#EF6F81"/>
<path d="M46.4283 23.5584C46.4283 24.4881 46.3736 25.4035 46.2688 26.3023H25.8937V44.5149C25.0845 44.6341 24.1943 44.708 23.2281 44.708C22.2261 44.708 21.3098 44.6293 20.4887 44.5077V26.3023H0.187292C0.0801916 25.4035 0.027832 24.4881 0.027832 23.5584C0.027832 22.655 0.0801919 21.7658 0.180152 20.8885H20.4887V0.485161C21.3883 0.377887 22.2999 0.325439 23.2281 0.325439C24.1301 0.325439 25.0178 0.377883 25.8937 0.473237V20.8885H46.276C46.3759 21.7682 46.4283 22.655 46.4283 23.5584Z" fill="#EF6F81"/>
<path d="M52.7591 8.79538C52.7591 9.82282 51.9284 10.6548 50.9027 10.6548H49.7246C49.7198 10.6548 49.7174 10.6595 49.7127 10.6595C47.7016 10.6667 46.0736 12.2996 46.0736 14.314V18.4261H42.3608V14.314C42.3608 13.2389 42.5941 12.221 43.0058 11.3008C44.1577 8.73578 46.721 6.94313 49.7103 6.93837C49.715 6.93837 49.7174 6.93359 49.7222 6.93359H50.9003C51.9261 6.93598 52.7591 7.76794 52.7591 8.79538Z" fill="#EF6F81"/>
<path d="M36.5016 42.0858H36.4969C36.4636 42.0786 36.4302 42.0786 36.3969 42.0786C34.3168 42.0786 32.4842 43.1752 31.4489 44.82C31.4941 44.8057 31.5346 44.7867 31.5798 44.7724C31.5393 44.7914 31.4941 44.8105 31.4489 44.8248C30.8777 45.7283 30.5469 46.7962 30.5469 47.9405C30.5469 51.1682 33.172 53.7928 36.3969 53.7928C39.6194 53.7928 42.2446 51.1682 42.2446 47.9405C42.2446 44.7414 39.6742 42.1382 36.5016 42.0858ZM31.9082 45.1132V45.1085C31.9487 45.0942 31.9868 45.0799 32.0272 45.0632C31.9892 45.0822 31.9487 45.0989 31.9082 45.1132Z" fill="#4967A7"/>
<path d="M31.9077 45.1133C31.9482 45.099 31.9886 45.0847 32.0267 45.0657C31.9863 45.08 31.9482 45.0943 31.9077 45.1109V45.1133Z" fill="#4967A7"/>
<path d="M31.4487 44.8177V44.8225C31.4939 44.8058 31.5392 44.7891 31.5796 44.77C31.5344 44.7867 31.4939 44.8034 31.4487 44.8177Z" fill="#4967A7"/>
<path d="M10.1619 42.0834H10.1572C10.1238 42.0786 10.0905 42.0786 10.0596 42.0786C7.97945 42.0786 6.14685 43.1728 5.11155 44.8177C5.15677 44.801 5.19723 44.7843 5.24245 44.7676C5.20199 44.789 5.15677 44.8034 5.11155 44.82C4.53797 45.7211 4.21191 46.7915 4.21191 47.9357C4.21191 51.1635 6.83467 53.7905 10.062 53.7905C13.2845 53.7905 15.9072 51.1635 15.9072 47.9357C15.9049 44.7414 13.3392 42.1382 10.1619 42.0834Z" fill="#4967A7"/>
<path d="M5.11133 44.8177V44.8225C5.15655 44.8058 5.20177 44.7891 5.24223 44.77C5.19701 44.7867 5.15655 44.8034 5.11133 44.8177Z" fill="#4967A7"/>
</svg>
