<svg width="373" height="358" viewBox="0 0 373 358" fill="none" xmlns="http://www.w3.org/2000/svg">
<path d="M148.458 28.0821C160.432 -8.77031 212.568 -8.77039 224.542 28.082L240.945 78.5633C246.3 95.0443 261.658 106.203 278.987 106.203H332.066C370.815 106.203 386.926 155.787 355.578 178.563L312.636 209.763C298.616 219.948 292.75 238.003 298.105 254.484L314.507 304.965C326.481 341.818 284.302 372.463 252.953 349.687L210.011 318.487C195.992 308.302 177.008 308.302 162.989 318.487L120.047 349.687C88.6981 372.463 46.5188 341.818 58.4929 304.965L74.8953 254.484C80.2503 238.003 74.3839 219.948 60.3644 209.763L17.4225 178.563C-13.926 155.787 2.18492 106.203 40.9339 106.203H94.0131C111.342 106.203 126.7 95.0443 132.055 78.5634L148.458 28.0821Z" fill="#FFD0D0"/>
</svg>
