<svg width="1827" height="1028" viewBox="0 0 1827 1028" fill="none" xmlns="http://www.w3.org/2000/svg">
<rect x="442" y="731" width="373" height="297" rx="80" fill="#FFD0D0"/>
<path d="M290.074 197.673C300.627 208.884 295.086 227.314 280.1 230.847L25.5404 290.865C10.5552 294.398 -2.63518 280.385 1.79767 265.641L77.1006 15.1762C81.5335 0.432181 100.265 -3.9842 110.817 7.22678L290.074 197.673Z" fill="#FFECED"/>
<path d="M1602.46 206.082C1614.43 169.23 1666.57 169.23 1678.54 206.082L1694.94 256.563C1700.3 273.044 1715.66 284.203 1732.99 284.203H1786.07C1824.81 284.203 1840.93 333.787 1809.58 356.563L1766.64 387.763C1752.62 397.948 1746.75 416.003 1752.1 432.484L1768.51 482.965C1780.48 519.818 1738.3 550.463 1706.95 527.687L1664.01 496.487C1649.99 486.302 1631.01 486.302 1616.99 496.487L1574.05 527.687C1542.7 550.463 1500.52 519.818 1512.49 482.965L1528.9 432.484C1534.25 416.003 1528.38 397.948 1514.36 387.763L1471.42 356.563C1440.07 333.787 1456.18 284.203 1494.93 284.203H1548.01C1565.34 284.203 1580.7 273.044 1586.06 256.563L1602.46 206.082Z" fill="#FFD0D0"/>
</svg>
