<svg width="169" height="164" viewBox="0 0 169 164" fill="none" xmlns="http://www.w3.org/2000/svg">
<path d="M65.4789 14.541C71.4659 -3.88517 97.5341 -3.88519 103.521 14.541L109.758 33.7356C112.435 41.976 120.114 47.5553 128.779 47.5553H148.961C168.336 47.5553 176.391 72.3476 160.717 83.7356L144.389 95.5985C137.379 100.691 134.446 109.719 137.124 117.959L143.36 137.154C149.347 155.58 128.258 170.902 112.584 159.514L96.2557 147.652C89.246 142.559 79.754 142.559 72.7443 147.652L56.4164 159.514C40.7422 170.902 19.6525 155.58 25.6396 137.154L31.8763 117.959C34.5538 109.719 31.6206 100.691 24.6108 95.5985L8.28299 83.7356C-7.39128 72.3476 0.664219 47.5553 20.0387 47.5553H40.221C48.8856 47.5553 56.5647 41.976 59.2422 33.7356L65.4789 14.541Z" fill="#FFD0D0"/>
</svg>
