<svg width="15" height="15" viewBox="0 0 15 15" fill="none" xmlns="http://www.w3.org/2000/svg">
<g clip-path="url(#clip0_910_2539)">
<path fill-rule="evenodd" clip-rule="evenodd" d="M0.93666 7.50008C0.93666 7.6244 0.986046 7.74363 1.07395 7.83154C1.16186 7.91944 1.28109 7.96883 1.40541 7.96883L12.4613 7.96883L9.51104 10.9182C9.46745 10.9618 9.43288 11.0135 9.4093 11.0705C9.38571 11.1274 9.37357 11.1884 9.37357 11.2501C9.37357 11.3117 9.38571 11.3727 9.4093 11.4297C9.43288 11.4866 9.46745 11.5384 9.51104 11.582C9.55462 11.6255 9.60636 11.6601 9.6633 11.6837C9.72024 11.7073 9.78128 11.7194 9.84291 11.7194C9.90455 11.7194 9.96558 11.7073 10.0225 11.6837C10.0795 11.6601 10.1312 11.6255 10.1748 11.582L13.9248 7.83196C13.9684 7.78841 14.0031 7.73669 14.0267 7.67974C14.0503 7.62279 14.0625 7.56174 14.0625 7.50008C14.0625 7.43842 14.0503 7.37737 14.0267 7.32042C14.0031 7.26348 13.9684 7.21175 13.9248 7.16821L10.1748 3.41821C10.1312 3.37462 10.0795 3.34005 10.0225 3.31647C9.96558 3.29288 9.90455 3.28074 9.84291 3.28074C9.78128 3.28074 9.72025 3.29288 9.6633 3.31647C9.60636 3.34005 9.55462 3.37462 9.51104 3.41821C9.46745 3.46179 9.43288 3.51353 9.4093 3.57047C9.38571 3.62741 9.37357 3.68845 9.37357 3.75008C9.37357 3.81172 9.38571 3.87275 9.4093 3.92969C9.43288 3.98663 9.46745 4.03837 9.51104 4.08196L12.4613 7.03133L1.40541 7.03133C1.28109 7.03133 1.16186 7.08072 1.07395 7.16862C0.986046 7.25653 0.93666 7.37576 0.93666 7.50008Z" fill="white"/>
</g>
<defs>
<clipPath id="clip0_910_2539">
<rect width="15" height="15" fill="white" transform="translate(15 15) rotate(-180)"/>
</clipPath>
</defs>
</svg>
