<svg width="15" height="15" viewBox="0 0 15 15" fill="none" xmlns="http://www.w3.org/2000/svg">
<g clip-path="url(#clip0_910_2543)">
<path fill-rule="evenodd" clip-rule="evenodd" d="M14.0633 7.49992C14.0633 7.3756 14.014 7.25637 13.926 7.16847C13.8381 7.08056 13.7189 7.03117 13.5946 7.03117L2.53865 7.03117L5.48896 4.0818C5.53255 4.03821 5.56712 3.98647 5.5907 3.92953C5.61429 3.87259 5.62643 3.81156 5.62643 3.74992C5.62643 3.68829 5.61429 3.62726 5.5907 3.57031C5.56712 3.51337 5.53255 3.46163 5.48896 3.41805C5.44538 3.37446 5.39364 3.33989 5.3367 3.31631C5.27976 3.29272 5.21872 3.28058 5.15709 3.28058C5.09545 3.28058 5.03442 3.29272 4.97748 3.31631C4.92054 3.33989 4.8688 3.37446 4.82521 3.41805L1.07521 7.16804C1.03156 7.21159 0.996925 7.26331 0.973294 7.32026C0.949663 7.37721 0.937499 7.43826 0.937499 7.49992C0.937499 7.56158 0.949663 7.62263 0.973294 7.67957C0.996925 7.73652 1.03156 7.78825 1.07521 7.83179L4.82521 11.5818C4.86879 11.6254 4.92053 11.6599 4.97748 11.6835C5.03442 11.7071 5.09545 11.7193 5.15709 11.7193C5.21872 11.7193 5.27975 11.7071 5.3367 11.6835C5.39364 11.6599 5.44538 11.6254 5.48896 11.5818C5.53255 11.5382 5.56712 11.4865 5.5907 11.4295C5.61429 11.3726 5.62643 11.3116 5.62643 11.2499C5.62643 11.1883 5.61429 11.1273 5.5907 11.0703C5.56712 11.0134 5.53255 10.9616 5.48896 10.918L2.53865 7.96867L13.5946 7.96867C13.7189 7.96867 13.8381 7.91929 13.926 7.83138C14.014 7.74347 14.0633 7.62424 14.0633 7.49992Z" fill="white"/>
</g>
<defs>
<clipPath id="clip0_910_2543">
<rect width="15" height="15" fill="white"/>
</clipPath>
</defs>
</svg>
