<svg width="95" height="119" viewBox="0 0 95 119" fill="none" xmlns="http://www.w3.org/2000/svg">
<g opacity="0.6">
<path d="M64.4519 118.856L73.3711 106.063L88.6216 109.342L68.2357 57.5642L44.0664 67.0789L64.4519 118.856Z" fill="#A0D2FF"/>
<path d="M30.1003 118.856L21.1809 106.063L5.93359 109.342L26.3191 57.5642L50.4857 67.0789L30.1003 118.856Z" fill="#A0D2FF"/>
<path d="M10.9572 48.4254C10.9572 28.3681 27.2176 12.1094 47.2749 12.1067V8.39233e-05C43.8244 0.00275421 41.1837 6.82675 37.952 7.56675C34.6186 8.32675 29.2774 3.34409 26.267 4.80009C23.2072 6.28142 23.793 13.5748 21.1654 15.6748C18.5249 17.7854 11.543 15.6054 9.43103 18.2454C7.3321 20.8734 10.9988 27.1934 9.5197 30.2507C8.0665 33.2614 0.821698 34.3161 0.0612976 37.6507C-0.675636 40.8841 5.37116 44.9721 5.37116 48.4254C5.37116 51.8787 -0.675636 55.9681 0.0612976 59.2001C0.821698 62.5374 8.0665 63.5881 9.5197 66.5974C10.9988 69.6601 7.3321 75.9801 9.43103 78.6067C11.543 81.2481 18.5249 79.0668 21.1654 81.1774C23.793 83.2774 23.2072 90.5721 26.267 92.0507C29.2774 93.5067 34.6186 88.5254 37.952 89.288C41.1837 90.0227 43.8244 96.8494 47.2749 96.8494V84.7441C27.2176 84.7441 10.9572 68.4854 10.9572 48.4254Z" fill="#5466A4"/>
<path d="M94.4932 37.6534C93.7332 34.3161 86.4879 33.2614 85.0319 30.2547C83.5559 27.1934 87.2225 20.8734 85.1212 18.2454C83.0119 15.6054 76.0296 17.7854 73.3889 15.6748C70.7613 13.5748 71.3472 6.28142 68.2873 4.80009C65.2769 3.34409 59.9359 8.32675 56.6025 7.56675C53.3681 6.82675 50.7301 8.39233e-05 47.2769 8.39233e-05H47.2744V12.1067H47.2769C67.3343 12.1067 83.5919 28.3681 83.5919 48.4254C83.5919 68.4854 67.3343 84.7441 47.2769 84.7441H47.2744V96.8494H47.2769C50.7301 96.8494 53.3681 90.0227 56.6025 89.288C59.9359 88.5254 65.2769 93.5067 68.2873 92.0507C71.3472 90.5721 70.7613 83.2814 73.3889 81.1774C76.0296 79.0668 83.0092 81.2507 85.1212 78.6067C87.2225 75.9801 83.5559 69.6601 85.0319 66.5974C86.4879 63.5881 93.7305 62.5374 94.4932 59.2001C95.2305 55.9681 89.1812 51.8787 89.1812 48.4254C89.1812 44.9721 95.2305 40.8841 94.4932 37.6534Z" fill="#5466A4"/>
<path d="M13.4155 48.4027C13.4155 29.696 28.5796 14.5307 47.2879 14.5307V3.2373C44.0665 3.2373 41.6056 9.60529 38.5925 10.2933C35.4807 10.9999 30.4988 6.35731 27.6916 7.71464C24.84 9.09464 25.3843 15.8946 22.9337 17.856C20.4701 19.8253 13.9597 17.7893 11.9911 20.2533C10.0327 22.704 13.452 28.5999 12.0744 31.4519C10.7176 34.2613 3.96239 35.2413 3.25146 38.3533C2.56399 41.368 8.20452 45.1813 8.20452 48.4027C8.20452 51.624 2.56399 55.4373 3.25146 58.4506C3.96239 61.5613 10.7176 62.5453 12.0744 65.3533C13.452 68.204 10.0327 74.0999 11.9911 76.5519C13.9597 79.0146 20.4701 76.9813 22.9337 78.9493C25.3843 80.9079 24.84 87.7119 27.6916 89.0906C30.4988 90.4479 35.4807 85.8026 38.5925 86.512C41.6056 87.2013 44.0665 93.5667 47.2879 93.5667V82.276C28.5796 82.276 13.4155 67.1093 13.4155 48.4027Z" fill="#219ABC"/>
<path d="M91.3236 38.3533C90.6156 35.244 83.8596 34.2613 82.5036 31.4519C81.1236 28.5999 84.5423 22.7066 82.5836 20.2533C80.6183 17.7893 74.1075 19.8253 71.6414 17.856C69.1908 15.8946 69.7376 9.09464 66.886 7.71464C64.0762 6.35731 59.0944 10.9999 55.9851 10.2933C52.9694 9.60529 50.5084 3.2373 47.2871 3.2373V14.5307C65.9955 14.5307 81.1596 29.6947 81.1596 48.4027C81.1596 67.1093 65.9955 82.276 47.2871 82.276V93.5667C50.5084 93.5667 52.9694 87.2013 55.9851 86.512C59.0944 85.8026 64.0736 90.4479 66.8835 89.0906C69.7376 87.7119 69.1908 80.9093 71.6414 78.9493C74.1048 76.9813 80.6156 79.0159 82.5836 76.5519C84.5423 74.0999 81.1236 68.2066 82.5036 65.3533C83.8596 62.5453 90.6156 61.5613 91.3236 58.4506C92.0143 55.4373 86.3703 51.624 86.3703 48.4027C86.3703 45.1813 92.0143 41.368 91.3236 38.3533Z" fill="#198EC3"/>
<path d="M13.4155 48.4027C13.4155 29.696 28.5796 14.5307 47.2879 14.5307V3.2373C44.0665 3.2373 41.6056 9.60529 38.5925 10.2933C35.4807 10.9999 30.4988 6.35731 27.6916 7.71464C24.84 9.09464 25.3843 15.8946 22.9337 17.856C20.4701 19.8253 13.9597 17.7893 11.9911 20.2533C10.0327 22.704 13.452 28.5999 12.0744 31.4519C10.7176 34.2613 3.96239 35.2413 3.25146 38.3533C2.56399 41.368 8.20452 45.1813 8.20452 48.4027C8.20452 51.624 2.56399 55.4373 3.25146 58.4506C3.96239 61.5613 10.7176 62.5453 12.0744 65.3533C13.452 68.204 10.0327 74.0999 11.9911 76.5519C13.9597 79.0146 20.4701 76.9813 22.9337 78.9493C25.3843 80.9079 24.84 87.7119 27.6916 89.0906C30.4988 90.4479 35.4807 85.8026 38.5925 86.512C41.6056 87.2013 44.0665 93.5667 47.2879 93.5667V82.276C28.5796 82.276 13.4155 67.1093 13.4155 48.4027Z" fill="#A0D2FF"/>
<path d="M91.3236 38.3533C90.6156 35.244 83.8596 34.2613 82.5036 31.4519C81.1236 28.5999 84.5423 22.7066 82.5836 20.2533C80.6183 17.7893 74.1075 19.8253 71.6414 17.856C69.1908 15.8946 69.7376 9.09464 66.886 7.71464C64.0762 6.35731 59.0944 10.9999 55.9851 10.2933C52.9694 9.60529 50.5084 3.2373 47.2871 3.2373V14.5307C65.9955 14.5307 81.1596 29.6947 81.1596 48.4027C81.1596 67.1093 65.9955 82.276 47.2871 82.276V93.5667C50.5084 93.5667 52.9694 87.2013 55.9851 86.512C59.0944 85.8026 64.0736 90.4479 66.8835 89.0906C69.7376 87.7119 69.1908 80.9093 71.6414 78.9493C74.1048 76.9813 80.6156 79.0159 82.5836 76.5519C84.5423 74.0999 81.1236 68.2066 82.5036 65.3533C83.8596 62.5453 90.6156 61.5613 91.3236 58.4506C92.0143 55.4373 86.3703 51.624 86.3703 48.4027C86.3703 45.1813 92.0143 41.368 91.3236 38.3533Z" fill="#A0D2FF"/>
<path d="M47.2871 82.2761C65.9955 82.2761 81.1596 67.1095 81.1596 48.4028C81.1596 29.6948 65.9955 14.5308 47.2871 14.5308V82.2761Z" fill="#5466A4"/>
<path d="M13.415 48.4028C13.415 67.1095 28.5792 82.2761 47.2874 82.2761V14.5308C28.5792 14.5308 13.415 29.6962 13.415 48.4028Z" fill="#5466A4"/>
<path d="M47.2871 79.2322C64.3132 79.2322 78.113 65.4309 78.113 48.4082C78.113 31.3842 64.3132 17.5828 47.2871 17.5828V79.2322Z" fill="#F6F6F7"/>
<path d="M16.4619 48.4082C16.4619 65.4309 30.2639 79.2322 47.2874 79.2322V17.5828C30.2639 17.5828 16.4619 31.3842 16.4619 48.4082Z" fill="#FAFAFA"/>
<path d="M66.1679 53.2988C66.1653 51.7174 65.3528 50.3654 63.6523 50.1454C64.8424 49.6348 65.4049 48.3281 65.4023 46.9348C65.3997 45.1454 64.3241 43.7001 62.1263 43.7001C62.1263 43.7001 55.6783 43.7908 53.5325 43.7094C52.8867 43.6854 51.5976 43.5588 51.0325 43.0521C50.1497 42.2628 50.3268 41.0921 50.7356 40.0988C51.9023 37.2361 52.8345 34.7894 51.8059 30.5921C50.7799 26.3974 47.3892 25.1748 46.1445 26.5241C45.5793 27.1348 46.2955 34.7601 44.2252 37.2495C41.3945 40.6535 40.1653 44.2054 39.8164 45.3654L38.9361 45.3614L35.8945 45.3414V63.4988C37.6497 63.4854 39.2591 63.4921 39.3711 63.5761C39.6288 63.7681 39.7225 65.8254 41.7069 66.7148C42.4831 67.0694 44.3293 67.2014 45.9779 67.2494C47.6159 67.2948 49.0585 67.2561 49.0585 67.2561V67.2508L58.5299 67.2561V67.2334L59.496 67.2308C60.7669 67.2254 62.0429 66.0281 62.0481 64.5521C62.0507 63.7401 61.7825 62.5868 60.9075 62.0934L62.0481 62.1054C63.9908 62.1041 64.8892 60.6548 64.8892 59.1508C64.8867 57.9628 64.3763 56.9628 63.2069 56.5934C65.1159 56.4748 66.1705 54.9588 66.1679 53.2988Z" fill="#FFD66B"/>
<path d="M29.999 63.4971H35.8949V45.3424H29.999V63.4971Z" fill="#FFD66B"/>
</g>
</svg>